<svg version="1.1" xmlns="http://www.w3.org/2000/svg" xmlns:xlink="http://www.w3.org/1999/xlink" width="66.4901" height="64.69307" viewBox="0,0,66.4901,64.69307"><g transform="translate(-206.91963,-147.47691)"><g data-paper-data="{&quot;isPaintingLayer&quot;:true}" fill-rule="nonzero" stroke-linecap="butt" stroke-linejoin="miter" stroke-miterlimit="10" stroke-dasharray="" stroke-dashoffset="0" style="mix-blend-mode: normal"><path d="M206.91963,212.16998v-64.69307h66.4901v64.69307z" fill="#0001ff" stroke="none" stroke-width="0"/><path d="M209.36146,161.72004c0,-1.38071 1.11929,-2.5 2.5,-2.5c1.38071,0 2.5,1.11929 2.5,2.5c0,1.38071 -1.11929,2.5 -2.5,2.5c-1.38071,0 -2.5,-1.11929 -2.5,-2.5z" fill="#ffffff" stroke="#ffffff" stroke-width="0.5"/><path d="M228.77706,163.51707c0,-1.38071 1.11929,-2.5 2.5,-2.5c1.38071,0 2.5,1.11929 2.5,2.5c0,1.38071 -1.11929,2.5 -2.5,2.5c-1.38071,0 -2.5,-1.11929 -2.5,-2.5z" fill="#ffffff" stroke="#ffffff" stroke-width="0.5"/><path d="M242.73406,149.20642c0.09235,0.00699 0.18909,0.02602 0.28982,0.05631c0.66974,0.12546 1.24538,0.51798 1.61216,1.06278c2.44251,2.22203 2.84065,7.49022 4.34721,10.08213c0.32483,0.55884 5.33841,4.663 6.60594,4.38653c5.63575,-1.2293 2.50701,-10.46998 2.44183,-13.24909c-0.01491,-0.63573 0.12843,-2.01644 0.54268,-2.66741c1.06303,-1.67048 5.48255,-0.97104 5.62122,-0.75288c0.46461,0.73091 0.32984,1.19773 0.33362,1.79808c0.02309,3.66528 1.56842,7.73943 0.67944,11.29534c-0.39162,1.56649 -1.07695,12.75548 -14.73965,7.69396c-8.85661,-3.28105 -10.23395,-15.00904 -10.1585,-16.10306c-0.15961,-0.32924 -0.24911,-0.69877 -0.24911,-1.08921c0,-1.33384 1.04459,-2.42371 2.36033,-2.49616c0.09972,-0.01917 0.20383,-0.02559 0.31301,-0.01732z" fill="#ffffff" stroke="none" stroke-width="0.5"/><path d="M218.11887,174.94405c1.66816,-0.03805 1.81726,-3.49452 3.89466,-3.42665c2.0774,0.06787 4.29461,4.33427 9.8566,3.87591c0.06939,-0.00572 -1.08248,-1.4761 -1.36377,-1.75738c-0.92678,-0.92678 -3.47479,-4.61668 -0.31259,-5.65814c3.67276,-2.44851 14.33745,9.61034 2.724,14.16057c-2.49703,0.29729 -5.83087,-0.00337 -7.74214,-1.41835c-0.88093,-0.65219 -1.59781,-2.32491 -2.48623,-3.03634c-0.07072,-0.05663 -4.39552,1.14108 -5.87721,1.26478c-1.42669,0.11911 -3.13917,-0.58907 -4.26587,-0.87075c-1.01248,-0.25312 -6.02766,-5.27917 -3.28866,-6.84431c0.43488,-0.73685 1.98575,-1.23117 2.9033,-1.23117c0.72154,0 1.4135,1.93848 2.84301,3.28194c1.18452,1.11321 2.36133,1.67708 3.11489,1.65989z" fill="#ffffff" stroke="none" stroke-width="0.5"/></g></g></svg>