<svg version="1.1" xmlns="http://www.w3.org/2000/svg" xmlns:xlink="http://www.w3.org/1999/xlink" width="26.42266" height="33.90019" viewBox="0,0,26.42266,33.90019"><g transform="translate(-233.62516,-172.10631)"><g data-paper-data="{&quot;isPaintingLayer&quot;:true}" fill-rule="nonzero" stroke-width="1" stroke-linejoin="miter" stroke-miterlimit="10" stroke-dasharray="" stroke-dashoffset="0" style="mix-blend-mode: normal"><g><path d="M234.98474,180.84954l-0.78304,-7.98702l7.36058,2.81895z" fill="#9e9e9e" stroke="#000000" stroke-linecap="round"/><path d="M240.46602,203.87094c-1.48854,-2.3453 -0.87828,-21.20711 0,-22.70819c0.91278,-1.56004 16.17551,-1.56909 18.00994,0c1.73278,1.48215 1.08978,21.00831 0,22.70819c-1.35912,2.12001 -16.58782,2.24066 -18.00994,0z" fill="#5d5d5d" stroke="#000000" stroke-linecap="butt"/><path d="M248.71881,201.52182c0,-0.71815 0.58217,-1.30032 1.30032,-1.30032c0.71815,0 1.30032,0.58217 1.30032,1.30032c0,0.71815 -0.58217,1.30032 -1.30032,1.30032c-0.71815,0 -1.30032,-0.58217 -1.30032,-1.30032z" fill="#000000" stroke="#5d5d5d" stroke-linecap="butt"/><path d="M244.48739,197.13079c-0.92016,-1.3364 -0.54292,-12.08425 0,-12.9396c0.56425,-0.88894 9.9991,-0.8941 11.13307,0c1.07114,0.84456 0.67366,11.97097 0,12.9396c-0.84016,1.20803 -10.25397,1.27677 -11.13307,0z" fill="#63f0ff" stroke="#000000" stroke-linecap="butt"/></g></g></g></svg>