<svg version="1.1" xmlns="http://www.w3.org/2000/svg" xmlns:xlink="http://www.w3.org/1999/xlink" width="77.35772" height="43.06928" viewBox="0,0,77.35772,43.06928"><g transform="translate(-201.74441,-157.57329)"><g data-paper-data="{&quot;isPaintingLayer&quot;:true}" fill-rule="nonzero" stroke-linecap="butt" stroke-linejoin="miter" stroke-miterlimit="10" stroke-dasharray="" stroke-dashoffset="0" style="mix-blend-mode: normal"><path d="" fill="#9966ff" stroke="none" stroke-width="0.5"/><g><path d="M259.94243,162.32329c0,-0.01278 0.00033,-0.02523 0.00096,-0.03737c-0.04019,-0.06063 -0.06995,-0.13915 -0.08124,-0.24075c-0.05521,-0.49694 0.44173,-0.55215 0.44173,-0.55215c1.70705,-0.16957 1.63928,-2.8364 1.63928,-2.8364l-0.16739,-0.58333c0,-0.27614 0.22386,-0.5 0.5,-0.5c0.22492,0 0.41515,0.14851 0.47799,0.35282l0.16302,0.48907l-0.03466,0.01155l0.05387,0.06646c0.00054,0.11502 0.0005,0.22886 -0.00047,0.34133c0.36975,0.33259 0.77766,0.93783 1.30694,1.23217c0.68001,0.37816 1.45192,0.40581 1.45192,0.40581l0.57571,-0.32897c0.07482,-0.04461 0.16226,-0.07024 0.2557,-0.07024c0.27614,0 0.5,0.22386 0.5,0.5c0,0.13807 -0.05597,0.26307 -0.14645,0.35355l-0.41667,0.41667l-0.02533,-0.02534l-0.03587,0.0774c-0.11417,0.05604 -0.22826,0.10513 -0.34199,0.14754c-0.29548,0.96696 -1.20036,2.48798 -1.20036,3.44684v0.5c0,0.27614 -0.22386,0.5 -0.5,0.5c-0.25466,0 -0.46485,-0.19037 -0.49601,-0.43657l-0.07006,-0.49044c-0.75665,-1.10555 -1.59699,-2.00111 -3.09946,-2.24647l-0.25113,0.0068c0,0 -0.5,0 -0.5,-0.5zM264.14447,163.41598c0.11469,-0.65287 0.32022,-1.25283 0.64929,-1.75815c-0.76018,-0.07368 -1.4351,-0.43408 -1.91441,-0.97666c-0.1781,0.57382 -0.49327,1.04045 -1.04571,1.3495c0.71634,0.31597 1.66888,0.84668 2.31083,1.38531z" fill="#ffffff" stroke="none" stroke-width="0.5"/><path d="M202.39776,194.8892c0.00813,-0.00986 0.01631,-0.01926 0.02452,-0.02821c0.00758,-0.07235 0.0346,-0.15185 0.09054,-0.2374c0.27365,-0.41846 0.69212,-0.14482 0.69212,-0.14482c1.42469,0.95552 3.06952,-1.14475 3.06952,-1.14475l0.24209,-0.55649c0.17573,-0.21301 0.49086,-0.24323 0.70387,-0.06751c0.1735,0.14314 0.22573,0.37875 0.14418,0.57634l-0.18548,0.481l-0.03409,-0.01314l-0.00074,0.08555c-0.07279,0.08907 -0.14526,0.17685 -0.21757,0.26299c0.07356,0.49185 0.00307,1.2183 0.22403,1.78217c0.28389,0.72445 0.86172,1.237 0.86172,1.237l0.65345,0.11261c0.0861,0.0132 0.16986,0.04908 0.24193,0.10854c0.21301,0.17573 0.24323,0.49086 0.0675,0.70387c-0.08787,0.1065 -0.21058,0.16731 -0.33795,0.17953l-0.58657,0.05625l-0.00342,-0.03566l-0.07692,0.03688c-0.12373,-0.02943 -0.24298,-0.06416 -0.35769,-0.10382c-0.84328,0.55786 -2.50923,1.1553 -3.11942,1.89494l-0.31819,0.38569c-0.17573,0.21301 -0.49086,0.24323 -0.70387,0.0675c-0.19644,-0.16206 -0.23743,-0.44267 -0.1048,-0.65241l0.25806,-0.4229c0.11987,-1.33431 0.04157,-2.5599 -0.96126,-3.70529l-0.19805,-0.15457c0,0 -0.38569,-0.31819 -0.0675,-0.70388zM204.94377,198.40615c0.50394,-0.43062 1.04428,-0.76263 1.61969,-0.94301c-0.53949,-0.54059 -0.83077,-1.2481 -0.85522,-1.97166c-0.50255,0.3293 -1.04261,0.48868 -1.66543,0.37551c0.35149,0.69959 0.74853,1.71514 0.90095,2.53916z" fill="#ffffff" stroke="none" stroke-width="0.5"/><g fill="none"><g stroke="#000000" stroke-width="4.5"><path d="M221.04438,188.1254c-0.04889,-0.08692 -0.09412,-0.19577 -0.13565,-0.32463c-0.0964,-0.24178 -0.15614,-0.50217 -0.17236,-0.77426c-0.20349,-1.30163 -0.22825,-3.40858 -0.06367,-5.68898c0.62896,-2.1505 1.03428,-4.71644 1.07977,-6.75605c0.599,-2.14656 1.43045,-3.75721 2.50765,-4.04053c2.3532,-0.61892 4.06636,4.80658 4.75772,6.20462c0.16036,0.32426 0.24046,0.98346 0.59427,0.90808c0.31284,-0.06665 -0.09409,-0.63309 -0.1584,-0.94642c-0.32102,-1.56401 -0.16985,-5.96109 2.27592,-6.09696c4.17266,-0.23182 3.00313,11.13684 2.83884,13.44848c-0.09598,1.35056 -0.10472,3.2489 -1.34292,4.11705c-5.25782,3.68647 -5.26887,-5.85035 -7.21323,-6.83334c-0.7425,-0.37538 -0.23494,1.64944 -0.28043,2.48019c-0.07902,1.44296 0.90927,3.60461 -0.34546,4.3216c-0.43488,0.73685 -1.23699,1.23117 -2.15454,1.23117c-0.81357,0 -1.53637,-0.38862 -1.9929,-0.99036c-0.07451,-0.07697 -0.14011,-0.16278 -0.1946,-0.25964z"/><path d="M203.08809,179.81971c0.0213,-0.91798 -0.19406,-6.01667 0.90632,-6.64546c0,0 1.19975,-1.39318 2.15454,-1.23117c2.54905,0.43252 2.12215,2.10492 2.30929,3.4594c0.53491,3.8716 -2.38982,8.66906 2.37856,8.22512c5.16927,-0.48126 -0.82855,-11.21713 4.84671,-11.21713c2.25826,0 3.08499,2.20187 3.14242,4.70525c-0.25983,1.95788 -0.7456,4.02572 -1.37586,5.62439c-0.18886,0.48388 -0.33593,0.98794 -0.44937,1.50635c-4.7996,7.50188 -14.13374,5.10285 -13.91261,-4.42675z"/><path d="M255.92625,188.6769c-0.20492,-0.03901 -0.40098,-0.10303 -0.58487,-0.18877c-2.50902,-0.6913 -2.72699,-5.75293 -2.72699,-5.75293c0,0 -0.46719,-2.60179 -0.14799,-5.44635c0.29783,-2.65414 1.36496,-5.54383 1.84797,-6.07514c1.88788,-2.07667 8.32126,-0.91681 8.32126,2.01418c0,1.85439 -1.18349,2.34488 -2.5,2.5c-0.59626,0.07026 -1.79182,-0.66735 -1.7999,-0.06702c-0.00615,0.4567 -0.02027,0.91413 -0.03828,1.37194c2.66587,0.44973 7.12423,2.17003 3.92947,5.48676c-0.46894,0.48684 -2.27629,0.50496 -4.065,0.17189c0.01461,0.34669 0.03669,0.69282 0.06806,1.03827c3.14566,-0.51994 6.54207,1.14558 5.16996,3.8898c0,0 -5.95083,1.90676 -7.47369,1.05737z"/><path d="M276.85213,173.50203c-0.50607,2.44461 -1.91836,6.11993 -3.81475,7.54736c-0.11907,0.08963 -0.26157,0.16697 -0.42078,0.23083c-0.0109,0.00521 -0.02183,0.01035 -0.03281,0.0154c-0.01408,0.06934 -0.03016,0.13954 -0.04815,0.21032c0.00339,0.04344 0.00621,0.08836 0.00845,0.1348c0.08744,1.81448 0.16927,3.93618 -0.07465,5.841c-0.01766,0.13791 -0.05183,0.27271 -0.10043,0.40351c-0.28132,1.07271 -1.25744,1.86406 -2.4184,1.86406c-0.02744,0 -0.05479,-0.00044 -0.08202,-0.00132c-1.19267,0.21536 -2.34334,-0.25544 -2.34334,-1.8899c-0.04876,-0.19487 -0.07464,-0.3988 -0.07464,-0.60878c0,-0.19239 0.02173,-0.37969 0.06287,-0.55961c0.10586,-1.14831 -0.53025,-4.44712 -0.53025,-5.04896c0,-0.05238 0.00161,-0.10438 0.00479,-0.15596c-1.47898,-3.12588 -5.16845,-9.09453 -1.76125,-10.55475c3.03909,-1.30247 4.0236,2.15036 4.64693,5.03124c0.69884,-2.18854 2.08134,-4.35674 3.09044,-5.36073c1.4934,-1.48584 4.42056,0.32882 3.88799,2.90149z"/><path d="M250.84304,184.1994c-0.53437,1.03661 -3.73393,4.05136 -7.13901,4.38065c-2.47021,0.23888 -5.44712,-1.95401 -5.66668,-2.41765c-1.58324,-3.34324 -0.46266,-7.25188 -0.35147,-10.87804c0.00096,-0.03143 0.00159,-0.06377 0.00207,-0.0968c0.0572,-1.33585 1.29327,-2.4032 2.80972,-2.4032c0.25917,0 0.51015,0.03118 0.74845,0.08954c5.48188,-2.23319 12.51986,5.65535 9.59692,11.3255zM245.52072,182.16024c0.26757,-0.45881 -0.48819,-4.3108 -1.1413,-4.37589c-0.24367,-0.02429 -2.10969,0.0224 -2.5401,0.09137c-0.01404,1.88805 -0.0772,3.77672 -0.04446,5.66417c0.89763,-0.22728 3.24504,-0.55519 3.72586,-1.37965z"/></g><g stroke="none" stroke-width="1" font-family="sans-serif" font-weight="normal" font-size="12" text-anchor="start"/></g><g stroke="none" stroke-width="0.5"><g fill="#dedede"><path d="M221.03201,188.07815c-0.04889,-0.08692 -0.09412,-0.19577 -0.13565,-0.32463c-0.0964,-0.24178 -0.15614,-0.50217 -0.17236,-0.77426c-0.20349,-1.30163 -0.22825,-3.40858 -0.06367,-5.68898c0.62896,-2.1505 1.03429,-4.71645 1.07978,-6.75605c0.599,-2.14656 1.43044,-3.75721 2.50764,-4.04053c2.3532,-0.61892 4.06636,4.80658 4.75772,6.20462c0.16036,0.32426 0.24046,0.98346 0.59427,0.90808c0.31284,-0.06665 -0.09409,-0.63309 -0.1584,-0.94642c-0.32102,-1.56401 -0.16985,-5.96109 2.27592,-6.09696c4.17266,-0.23182 3.00313,11.13684 2.83884,13.44848c-0.09598,1.35056 -0.10472,3.2489 -1.34292,4.11705c-5.25782,3.68647 -5.26887,-5.85035 -7.21323,-6.83334c-0.7425,-0.37538 -0.23494,1.64944 -0.28043,2.48019c-0.07902,1.44296 0.90927,3.60461 -0.34546,4.3216c-0.43488,0.73685 -1.23699,1.23117 -2.15454,1.23117c-0.81357,0 -1.53637,-0.38862 -1.9929,-0.99036c-0.07451,-0.07697 -0.14011,-0.16278 -0.1946,-0.25964z"/><path d="M203.07572,179.77246c0.0213,-0.91798 -0.19406,-6.01667 0.90632,-6.64546c0,0 1.19975,-1.39318 2.15454,-1.23117c2.54905,0.43252 2.12215,2.10492 2.30929,3.4594c0.53491,3.8716 -2.38982,8.66906 2.37856,8.22512c5.16927,-0.48126 -0.82855,-11.21713 4.84671,-11.21713c2.25826,0 3.08499,2.20187 3.14242,4.70524c-0.25983,1.95788 -0.7456,4.02572 -1.37586,5.62439c-0.18886,0.48388 -0.33593,0.98794 -0.44937,1.50635c-4.7996,7.50188 -14.13374,5.10286 -13.91262,-4.42674z"/><path d="M263.38755,187.57228c-0.57756,1.15512 -5.95081,1.90676 -7.47367,1.05737c-0.20492,-0.03901 -0.40098,-0.10303 -0.58487,-0.18877c-1.47674,-0.40688 -2.36919,-2.95341 -2.71356,-6.00195l-0.00944,0.08497l-0.00399,0.16405c0,0 -0.46719,-2.60179 -0.14799,-5.44635c0.29783,-2.65414 1.36496,-5.54383 1.84797,-6.07514c1.88788,-2.07667 8.32126,-0.91681 8.32126,2.01418c0,1.85439 -1.18349,2.34488 -2.5,2.5c-0.59626,0.07026 -1.79182,-0.66735 -1.7999,-0.06702c-0.00615,0.4567 -0.02027,0.91413 -0.03828,1.37194c2.66587,0.44973 7.12423,2.17003 3.92947,5.48676c-0.46894,0.48684 -2.27629,0.50496 -4.065,0.17189c0.01461,0.34669 0.03669,0.69282 0.06806,1.03827c3.14566,-0.51994 6.54207,1.14558 5.16996,3.8898z"/><path d="M272.95176,170.55329c2.48194,-1.06368 4.42057,0.32882 3.888,2.90149c-0.50607,2.44461 -1.91836,6.11993 -3.81475,7.54736c-0.11907,0.08963 -0.26157,0.16697 -0.42078,0.23083c-0.0109,0.00521 -0.02183,0.01035 -0.03281,0.0154c-0.01408,0.06934 -0.03016,0.13954 -0.04815,0.21032c0.00339,0.04344 0.00621,0.08836 0.00845,0.1348c0.08744,1.81448 0.16927,3.93618 -0.07465,5.841c-0.01766,0.13791 -0.05183,0.27271 -0.10043,0.40351c-0.28132,1.07271 -1.25744,1.86406 -2.4184,1.86406c-0.02744,0 -0.05479,-0.00044 -0.08202,-0.00132c-1.19267,0.21536 -2.34334,-0.25544 -2.34334,-1.8899c-0.04876,-0.19487 -0.07464,-0.3988 -0.07464,-0.60878c0,-0.19239 0.02173,-0.37969 0.06287,-0.55961c0.10586,-1.14831 -0.53025,-4.44712 -0.53025,-5.04896c0,-0.05238 0.00161,-0.10438 0.00479,-0.15596c-1.47898,-3.12588 -5.16845,-9.09453 -1.76125,-10.55475c3.03909,-1.30247 4.0236,2.15036 4.64693,5.03124c0.69884,-2.18854 1.78206,-4.79999 3.09044,-5.36073z"/><path d="M250.83067,184.15215c-0.53437,1.03661 -3.73393,4.05136 -7.13901,4.38065c-2.47021,0.23888 -5.44712,-1.95401 -5.66668,-2.41765c-1.58324,-3.34324 -0.46266,-7.25188 -0.35147,-10.87804c0.00096,-0.03143 0.00159,-0.06377 0.00207,-0.0968c0.0572,-1.33585 1.29327,-2.4032 2.80972,-2.4032c0.25917,0 0.51015,0.03118 0.74845,0.08954c5.48188,-2.23319 12.51986,5.65535 9.59692,11.3255zM245.50835,182.11299c0.26757,-0.45881 -0.48819,-4.3108 -1.1413,-4.37589c-0.24367,-0.02429 -2.10969,0.0224 -2.5401,0.09137c-0.01404,1.88805 -0.0772,3.77672 -0.04446,5.66417c0.89763,-0.22728 3.24504,-0.55519 3.72586,-1.37965z"/></g><g fill="#c3c3c3"><path d="M221.03201,188.07815c-0.04889,-0.08692 -0.09412,-0.19577 -0.13565,-0.32463c-0.0964,-0.24178 -0.15614,-0.50217 -0.17236,-0.77426c-0.21991,-1.40669 -0.23109,-3.75397 -0.02011,-6.24426c0.78621,-0.09051 1.56305,-0.23541 2.31421,-0.44099c0.65115,0.1879 1.3296,0.3114 2.02802,0.36317c0.22066,0.01636 0.44331,0.02555 0.66772,0.02735c3.01529,0.17602 6.03605,0.17812 9.05789,0.1535c-0.06743,1.41617 -0.17391,2.58663 -0.21562,3.17344c-0.09598,1.35056 -0.10472,3.2489 -1.34292,4.11705c-5.25782,3.68647 -5.26887,-5.85035 -7.21323,-6.83334c-0.7425,-0.37538 -0.23494,1.64944 -0.28043,2.48019c-0.07902,1.44296 0.90927,3.60461 -0.34546,4.3216c-0.43488,0.73685 -1.23699,1.23117 -2.15454,1.23117c-0.81357,0 -1.53637,-0.38862 -1.9929,-0.99036c-0.07451,-0.07697 -0.14011,-0.16278 -0.1946,-0.25964z"/><path d="M217.58385,182.98628c-1.73452,3.3105 -4.27508,5.42064 -6.74753,5.76223c-3.90387,0.53935 -7.63797,-2.77796 -7.76131,-8.53527c0.87079,0.24756 1.79001,0.38008 2.74018,0.38008c0.78202,0 1.54308,-0.08977 2.27343,-0.25956c-0.18851,1.93436 0.08408,3.30843 2.73582,3.06155c1.65372,-0.15396 2.16455,-1.35742 2.2803,-2.92313c0.2474,0.01833 0.49731,0.02766 0.7494,0.02766c1.4766,0.19305 2.66898,0.22747 4.1976,0.05715c-0.21995,0.95862 -0.14435,1.81179 -0.46788,2.42928z"/><path d="M263.38755,187.75729c-0.57756,1.15512 -5.95081,1.90676 -7.47367,1.05737c-0.20492,-0.03901 -0.40098,-0.10303 -0.58487,-0.18877c-1.47674,-0.40688 -2.36919,-2.95341 -2.71356,-6.00195l-0.00944,0.08497l-0.00399,0.16405c0,0 -0.10498,-0.58464 -0.18141,-1.50263c3.37331,0.2607 6.74022,0.61661 10.11193,0.93223c-0.09623,0.11617 -0.20208,0.23442 -0.31801,0.35478c-0.46894,0.48684 -2.27629,0.50496 -4.065,0.17189c0.01461,0.34669 0.03669,0.69282 0.06806,1.03827c3.14566,-0.51994 6.54207,1.14558 5.16996,3.8898z"/><path d="M272.45707,187.6195c-0.01766,0.13791 -0.05183,0.27271 -0.10043,0.40351c-0.28132,1.07271 -1.25744,1.86406 -2.4184,1.86406c-0.02744,0 -0.05479,-0.00044 -0.08202,-0.00132c-1.19267,0.21536 -2.34334,-0.25544 -2.34334,-1.8899c-0.04876,-0.19487 -0.07464,-0.3988 -0.07464,-0.60878c0,-0.19239 0.02173,-0.37969 0.06287,-0.55961c0.07874,-0.85411 -0.253,-2.89794 -0.42816,-4.1368c1.83363,0.13689 3.67015,0.24399 5.51135,0.29965c0.055,1.50791 0.06407,3.13526 -0.12723,4.62919z"/><path d="M250.83067,184.15215c-0.53437,1.03661 -3.73394,4.05136 -7.13901,4.38065c-2.47021,0.23889 -5.44712,-1.95402 -5.66668,-2.41765c-0.78438,-1.65633 -0.90511,-3.45143 -0.81373,-5.28221c1.52466,-0.01386 3.04953,-0.03208 4.57403,-0.03575c-0.01223,0.89863 -0.01837,1.79718 -0.00279,2.69546c0.89763,-0.22727 3.24504,-0.55518 3.72585,-1.37965c0.08744,-0.14993 0.0656,-0.66217 -0.02622,-1.2862c0.47466,0.01003 0.94925,0.02296 1.42373,0.03936c1.53831,0.05316 3.07404,0.14124 4.60823,0.25151c0.02399,1.03521 -0.18476,2.06714 -0.68342,3.03449z"/></g></g><path d="M216.97006,176.08482c-0.5,0.00242 -0.50242,-0.49756 -0.50242,-0.49756l0.00359,-0.22749c-0.10213,-0.7526 -0.40059,-2.23379 -1.2929,-1.13568c0,0 -0.35355,0.35356 -0.7071,0c-0.35356,-0.35356 0,-0.70711 0,-0.70711c1.70253,-1.51993 2.7288,-0.05174 2.98995,1.70137l0.00646,0.36405c0,0 0.00242,0.5 -0.49757,0.50242z" fill="#ffffff" stroke="none" stroke-width="0.5"/><path d="M216.75335,177.15625c0,-0.27614 0.22386,-0.5 0.5,-0.5c0.27614,0 0.5,0.22386 0.5,0.5c0,0.27614 -0.22386,0.5 -0.5,0.5c-0.27614,0 -0.5,-0.22386 -0.5,-0.5z" fill="#ffffff" stroke="none" stroke-width="0.5"/></g></g></g></svg>