<svg version="1.1" xmlns="http://www.w3.org/2000/svg" xmlns:xlink="http://www.w3.org/1999/xlink" width="126.72127" height="259.87727" viewBox="0,0,126.72127,259.87727"><defs><linearGradient x1="245.40501" y1="285.10158" x2="169.73835" y2="285.10158" gradientUnits="userSpaceOnUse" id="color-1"><stop offset="0" stop-color="#2e2d00"/><stop offset="1" stop-color="#2a2900"/></linearGradient><linearGradient x1="238.09436" y1="252.0043" x2="238.09436" y2="307.60694" gradientUnits="userSpaceOnUse" id="color-2"><stop offset="0" stop-color="#71e6e2"/><stop offset="1" stop-color="#5cbcb8"/></linearGradient><linearGradient x1="209.98449" y1="246.59041" x2="239.85256" y2="246.59041" gradientUnits="userSpaceOnUse" id="color-3"><stop offset="0" stop-color="#6bdbd7"/><stop offset="1" stop-color="#70e4e0"/></linearGradient><radialGradient cx="212.89562" cy="235.08933" r="2.82755" gradientUnits="userSpaceOnUse" id="color-4"><stop offset="0" stop-color="#71e6e2"/><stop offset="1" stop-color="#71e6e2" stop-opacity="0"/></radialGradient><radialGradient cx="217.87032" cy="234.01117" r="3.15216" gradientUnits="userSpaceOnUse" id="color-5"><stop offset="0" stop-color="#71e6e2"/><stop offset="1" stop-color="#71e6e2" stop-opacity="0"/></radialGradient><radialGradient cx="219.65386" cy="239.21928" r="4.76153" gradientUnits="userSpaceOnUse" id="color-6"><stop offset="0" stop-color="#71e6e2"/><stop offset="1" stop-color="#71e6e2" stop-opacity="0"/></radialGradient><radialGradient cx="220.77239" cy="239.01168" r="0.95165" gradientUnits="userSpaceOnUse" id="color-7"><stop offset="0" stop-color="#71e6e2"/><stop offset="1" stop-color="#71e6e2" stop-opacity="0"/></radialGradient><radialGradient cx="223.877" cy="233.80973" r="2.5464" gradientUnits="userSpaceOnUse" id="color-8"><stop offset="0" stop-color="#71e6e2"/><stop offset="1" stop-color="#71e6e2" stop-opacity="0"/></radialGradient><radialGradient cx="222.27187" cy="232.29163" r="3.82993" gradientUnits="userSpaceOnUse" id="color-9"><stop offset="0" stop-color="#71e6e2"/><stop offset="1" stop-color="#71e6e2" stop-opacity="0"/></radialGradient><radialGradient cx="214.84433" cy="235.83011" r="0.96904" gradientUnits="userSpaceOnUse" id="color-10"><stop offset="0" stop-color="#71e6e2"/><stop offset="1" stop-color="#71e6e2" stop-opacity="0"/></radialGradient><radialGradient cx="221.77952" cy="267.95532" r="35.6969" gradientUnits="userSpaceOnUse" id="color-11"><stop offset="0" stop-color="#71e6e2"/><stop offset="1" stop-color="#71e6e2" stop-opacity="0"/></radialGradient><radialGradient cx="227.47179" cy="264.59934" r="9.45289" gradientUnits="userSpaceOnUse" id="color-12"><stop offset="0" stop-color="#71e6e2"/><stop offset="1" stop-color="#71e6e2" stop-opacity="0"/></radialGradient><radialGradient cx="227.8118" cy="258.95007" r="1.20329" gradientUnits="userSpaceOnUse" id="color-13"><stop offset="0" stop-color="#71e6e2"/><stop offset="1" stop-color="#71e6e2" stop-opacity="0"/></radialGradient><radialGradient cx="216.9909" cy="261.79309" r="30.33544" gradientUnits="userSpaceOnUse" id="color-14"><stop offset="0" stop-color="#71e6e2"/><stop offset="1" stop-color="#71e6e2" stop-opacity="0"/></radialGradient><radialGradient cx="216.36969" cy="257.25209" r="3.90013" gradientUnits="userSpaceOnUse" id="color-15"><stop offset="0" stop-color="#71e6e2"/><stop offset="1" stop-color="#71e6e2" stop-opacity="0"/></radialGradient><radialGradient cx="221.67003" cy="253.77525" r="6.82501" gradientUnits="userSpaceOnUse" id="color-16"><stop offset="0" stop-color="#71e6e2"/><stop offset="1" stop-color="#71e6e2" stop-opacity="0"/></radialGradient><radialGradient cx="229.38754" cy="256.90553" r="7.2422" gradientUnits="userSpaceOnUse" id="color-17"><stop offset="0" stop-color="#71e6e2"/><stop offset="1" stop-color="#71e6e2" stop-opacity="0"/></radialGradient><radialGradient cx="236.14033" cy="255.69628" r="3.43864" gradientUnits="userSpaceOnUse" id="color-18"><stop offset="0" stop-color="#71e6e2"/><stop offset="1" stop-color="#71e6e2" stop-opacity="0"/></radialGradient><linearGradient x1="245.45262" y1="294.10158" x2="169.78596" y2="294.10158" gradientUnits="userSpaceOnUse" id="color-19"><stop offset="0" stop-color="#706d00"/><stop offset="1" stop-color="#dbd600"/></linearGradient><linearGradient x1="251.01407" y1="255.11405" x2="251.01407" y2="310.98065" gradientUnits="userSpaceOnUse" id="color-20"><stop offset="0" stop-color="#0e736f"/><stop offset="1" stop-color="#004d5c"/></linearGradient><linearGradient x1="228.56583" y1="166.50481" x2="223.03702" y2="211.72985" gradientUnits="userSpaceOnUse" id="color-21"><stop offset="0" stop-color="#100a29"/><stop offset="1" stop-color="#145250"/></linearGradient><linearGradient x1="173.14969" y1="199.21069" x2="223.79836" y2="193.6049" gradientUnits="userSpaceOnUse" id="color-22"><stop offset="0" stop-color="#ffffff"/><stop offset="1" stop-color="#dddddd"/></linearGradient><linearGradient x1="190.82697" y1="190.05823" x2="208.47077" y2="188.10542" gradientUnits="userSpaceOnUse" id="color-23"><stop offset="0" stop-color="#464646" stop-opacity="0"/><stop offset="1" stop-color="#464646"/></linearGradient><linearGradient x1="196.8571" y1="192.28624" x2="210.28578" y2="190.79996" gradientUnits="userSpaceOnUse" id="color-24"><stop offset="0" stop-color="#464646" stop-opacity="0"/><stop offset="1" stop-color="#464646"/></linearGradient><linearGradient x1="194.21808" y1="197.98572" x2="213.85796" y2="195.81198" gradientUnits="userSpaceOnUse" id="color-25"><stop offset="0" stop-color="#464646" stop-opacity="0"/><stop offset="1" stop-color="#464646"/></linearGradient><linearGradient x1="207.97685" y1="199.60741" x2="216.18297" y2="198.69916" gradientUnits="userSpaceOnUse" id="color-26"><stop offset="0" stop-color="#464646" stop-opacity="0"/><stop offset="1" stop-color="#464646"/></linearGradient><linearGradient x1="212.43819" y1="201.24657" x2="217.91462" y2="200.64044" gradientUnits="userSpaceOnUse" id="color-27"><stop offset="0" stop-color="#464646" stop-opacity="0"/><stop offset="1" stop-color="#464646"/></linearGradient><linearGradient x1="212.72485" y1="206.12268" x2="220.93521" y2="205.21396" gradientUnits="userSpaceOnUse" id="color-28"><stop offset="0" stop-color="#464646" stop-opacity="0"/><stop offset="1" stop-color="#464646"/></linearGradient><linearGradient x1="196.51847" y1="182.51205" x2="205.9827" y2="181.46455" gradientUnits="userSpaceOnUse" id="color-29"><stop offset="0" stop-color="#464646" stop-opacity="0"/><stop offset="1" stop-color="#464646"/></linearGradient><linearGradient x1="206.84419" y1="196.71448" x2="215.1135" y2="195.79923" gradientUnits="userSpaceOnUse" id="color-30"><stop offset="0" stop-color="#464646" stop-opacity="0"/><stop offset="1" stop-color="#464646"/></linearGradient><linearGradient x1="211.53156" y1="197.70482" x2="217.26791" y2="197.06992" gradientUnits="userSpaceOnUse" id="color-31"><stop offset="0" stop-color="#464646" stop-opacity="0"/><stop offset="1" stop-color="#464646"/></linearGradient><linearGradient x1="214.35656" y1="202.67438" x2="219.82271" y2="202.06939" gradientUnits="userSpaceOnUse" id="color-32"><stop offset="0" stop-color="#464646" stop-opacity="0"/><stop offset="1" stop-color="#464646"/></linearGradient><linearGradient x1="206.72878" y1="184.09762" x2="250.9635" y2="179.20172" gradientUnits="userSpaceOnUse" id="color-33"><stop offset="0" stop-color="#000000" stop-opacity="0"/><stop offset="1" stop-color="#000000"/></linearGradient><linearGradient x1="222.57492" y1="203.13738" x2="222.57492" y2="229.22298" gradientUnits="userSpaceOnUse" id="color-34"><stop offset="0" stop-color="#760101"/><stop offset="1" stop-color="#e60202"/></linearGradient><linearGradient x1="237.78032" y1="220.78749" x2="237.78032" y2="253.28749" gradientUnits="userSpaceOnUse" id="color-35"><stop offset="0" stop-color="#c30202"/><stop offset="1" stop-color="#790000"/></linearGradient><linearGradient x1="230.72589" y1="148.34183" x2="235.04737" y2="187.38669" gradientUnits="userSpaceOnUse" id="color-36"><stop offset="0" stop-color="#541882"/><stop offset="1" stop-color="#421266"/></linearGradient><radialGradient cx="252.40577" cy="106.21841" r="13.97166" gradientUnits="userSpaceOnUse" id="color-37"><stop offset="0" stop-color="#ffffff"/><stop offset="1" stop-color="#feffd8"/></radialGradient><radialGradient cx="255.35957" cy="109.31497" r="18.98268" gradientUnits="userSpaceOnUse" id="color-38"><stop offset="0" stop-color="#feffd8"/><stop offset="1" stop-color="#feffd8" stop-opacity="0"/></radialGradient><radialGradient cx="234.23443" cy="194.44427" r="14.27427" gradientUnits="userSpaceOnUse" id="color-39"><stop offset="0" stop-color="#ffffff"/><stop offset="1" stop-color="#ffffff" stop-opacity="0"/></radialGradient></defs><g transform="translate(-157.43532,-86.6071)"><g data-paper-data="{&quot;isPaintingLayer&quot;:true}" fill-rule="nonzero" stroke-linejoin="miter" stroke-miterlimit="10" stroke-dasharray="" stroke-dashoffset="0" style="mix-blend-mode: normal"><g><path d="M272.30737,299.59206c-1.4746,-0.23879 -2.45054,-0.9782 -1.99948,-2.58508c1.00857,-3.59283 6.36207,-2.12453 8.71159,-0.04671c0.44685,0.28327 0.77626,0.57421 0.78358,0.88619c0.5232,0.82122 0.4658,1.64147 -0.57537,2.21653c-1.5139,0.83616 -4.15109,0.12082 -6.22665,0.18123z" fill="#111111" stroke="none" stroke-width="0.5" stroke-linecap="butt"/><g stroke="#000000" stroke-width="2"><path d="M204.8171,327.03618c0,0 -9.95263,-2.2939 -15.93915,-3.13287c-7.18542,-1.00698 -24.23689,-2.49747 -24.23689,-2.49747c0,0 14.28836,-2.76111 21.66965,-3.29777c7.34041,-0.5337 22.49609,0.08664 22.49609,0.08664" fill="#ffffff" stroke-linecap="round"/><path d="M275.08402,299.75656c0,0 -37.13718,0.72422 -40.52285,5.88539c-3.20726,4.88919 11.37497,8.33331 25.46961,11.14876c13.26265,2.64925 26.11964,4.60399 22.509,10.95681c-7.20365,12.67461 -20.49551,1.25725 -34.69343,1.71552c-19.7775,0.63836 -40.37274,9.74395 -40.37274,9.74395" fill="none" stroke-linecap="round"/><path d="M208.52904,318.13413l14.9992,3.2716l-15.14324,23.95238l-14.99919,-3.27161z" fill="#651265" stroke-linecap="butt"/></g></g><path d="M169.73835,269.26241l13.72633,-0.22309c0,0 2.01852,9.35365 2.07268,12.63681c0.03277,1.98617 -1.77826,5.21015 -1.77826,5.21015h61.64591v14.27756c0,0 -27.3322,2.57143 -50.33408,2.57143c-23.00188,0 -25.33258,-2.57143 -25.33258,-2.57143z" fill="url(#color-1)" stroke="#000000" stroke-width="2" stroke-linecap="butt"/><g><g stroke="#000000" stroke-width="2"><path d="M208.46936,277.76614c0,-13.87217 13.22081,-25.76184 31.29067,-25.76184c18.06986,0 27.95933,11.67498 27.95933,25.54716c0,13.87217 -8.69971,30.05548 -26.76958,30.05548c-18.06986,0 -32.48042,-15.96863 -32.48042,-29.8408z" fill="url(#color-2)" stroke-linecap="butt"/><path d="M209.98449,269.71277c0,0 0.62211,-0.65646 0.64584,-2.43487c0.08252,-6.18322 -0.04584,-42.52176 -0.04584,-42.52176l29.26807,-1.28809l-0.23795,29.03004" fill="url(#color-3)" stroke-linecap="round"/></g><g stroke="none" stroke-width="0.5" stroke-linecap="butt"><path d="M212.23746,237.27027c0.06714,0.01466 0.14086,0.05901 0.17337,0.17623c0.06682,0.2409 -0.17407,0.30773 -0.17407,0.30773l-0.54802,0.15202c-0.02291,0.00691 -0.0472,0.01063 -0.07236,0.01063c-0.13807,0 -0.25,-0.11193 -0.25,-0.25c0,-0.06904 0.02799,-0.13153 0.07323,-0.17677l0.32066,-0.32066c0.42432,-1.45648 0.87222,-4.12292 2.29786,-4.87972c0,0 0.2236,-0.1118 0.33541,0.11181c0.11181,0.2236 -0.11181,0.33541 -0.11181,0.33541c-1.21929,0.55745 -1.65589,3.22463 -2.04427,4.53334z" fill="url(#color-4)"/><path d="M216.36983,237.16333c-0.25,-0.0001 -0.2499,-0.2501 -0.2499,-0.2501l0.00164,-0.2285c0.23852,-1.96093 2.23471,-3.84086 3.01857,-5.66988c0,0 0.09848,-0.22978 0.32826,-0.1313c0.22978,0.09848 0.1313,0.32826 0.1313,0.32826c-0.74055,1.72795 -2.79592,3.68407 -2.98126,5.52863l0.00147,0.173c0,0 -0.0001,0.25 -0.2501,0.24989z" fill="url(#color-5)"/><path d="M220.4822,241.48995c0.22338,0.11226 0.11112,0.33563 0.11112,0.33563l-0.02757,0.05487c-0.25718,0.51175 -0.85802,2.47828 -1.74142,2.0361c-0.33021,-0.16529 -0.2471,-2.2638 -0.24733,-3.57769c-0.45447,-1.8476 0.87369,-4.30643 1.78095,-5.75804c0,0 0.1325,-0.212 0.3445,-0.0795c0.212,0.1325 0.0795,0.3445 0.0795,0.3445c-0.63971,1.02354 -1.66322,2.80775 -1.80364,4.32969c0.02511,0.04095 0.03417,0.07718 0.03417,0.07718c0.07936,0.32103 0.11628,0.69101 0.12954,1.07169c0.07793,0.07401 0.07793,0.18895 0.07793,0.18895l-0.05245,0.03393c0.00902,0.0196 0.01837,0.03904 0.02804,0.05833l-0.04784,-0.00928c0.01554,1.92678 -0.45369,3.89506 0.97129,1.05962l0.02757,-0.05487c0,0 0.11226,-0.22338 0.33564,-0.11112z" fill="url(#color-6)"/><path d="M220.91384,239.27051c0.07364,-0.01792 0.20299,-0.02241 0.2797,0.13102c0.11181,0.2236 -0.11181,0.33541 -0.11181,0.33541l-0.3955,0.19775c-0.03474,0.01829 -0.07431,0.02864 -0.1163,0.02864c-0.13807,0 -0.25,-0.11193 -0.25,-0.25c0,-0.01731 0.00176,-0.0342 0.00511,-0.05052l0.08286,-0.44642l0.00394,0.00073l-0.0002,-0.0176c0.10686,-0.32181 0.2139,-0.64356 0.32112,-0.96525c0,0 0.07906,-0.23717 0.31623,-0.15812c0.23717,0.07906 0.15812,0.31623 0.15812,0.31623c-0.09759,0.29277 -0.19534,0.58547 -0.29327,0.87812z" fill="url(#color-7)"/><path d="M224.17031,231.26333c0.25,0.00038 0.24963,0.25038 0.24963,0.25038l-0.00038,0.24705c-0.00102,0.67872 0.38125,4.71606 -0.71952,4.5926c-0.63003,-0.07066 -0.3801,-3.19583 -0.3801,-3.64003c0,0 0,-0.25 0.25,-0.25c0.25,0 0.25,0.25 0.25,0.25c0,0.17872 0.05365,0.96031 0.0822,1.70167c0.00806,-0.05767 0.01298,-0.11098 0.01368,-0.15834c0.01236,-0.83185 0.00249,-1.6647 0.00374,-2.49666l0.00038,-0.24705c0,0 0.00037,-0.25 0.25037,-0.24962z" fill="url(#color-8)"/><path d="M222.59811,235.41116c0.10217,0.22817 -0.126,0.33034 -0.126,0.33034l-0.25666,0.11493c-0.32998,0.13832 -0.95562,0.54428 -1.27044,-0.04567c-0.17164,-0.32164 0.79442,-1.67826 0.96358,-1.98176c0.84728,-1.52022 0.87899,-3.47858 1.21621,-5.1647c0,0 0.04903,-0.24515 0.29417,-0.19612c0.24515,0.04903 0.19612,0.29418 0.19612,0.29418c-0.3151,1.5755 -0.36689,3.37024 -1.01527,4.84924c-0.17796,0.40593 -1.22774,1.63779 -1.19925,1.99308c0.01715,0.21395 0.41771,-0.11033 0.61055,-0.20459l0.25666,-0.11493c0,0 0.22817,-0.10217 0.33034,0.126z" fill="url(#color-9)"/><path d="M214.94692,235.66407c0.00743,-0.00048 0.0151,-0.00074 0.02302,-0.00074c0.25,0 0.25,0.25 0.25,0.25v0.1c-0.14911,1.75568 -0.97586,0.1815 -0.69253,-0.96063c0,0 0.06063,-0.24254 0.30317,-0.1819c0.24254,0.06063 0.1819,0.30317 0.1819,0.30317c-0.02237,0.08872 -0.04319,0.28424 -0.06556,0.4901z" fill="url(#color-10)"/><g><path d="M221.79457,265.75343c0.24878,0.02463 0.22414,0.27342 0.22414,0.27342l-0.01665,0.16819c-0.2377,2.40029 -0.13046,5.72401 -1.44858,7.90019l0.05593,0.0266l-0.21235,0.44652c-0.02265,0.05042 -0.06153,0.09197 -0.10999,0.11801c-0.01997,0.12179 -0.04228,0.24156 -0.06714,0.359c0,2.65228 0,5.30457 0,7.95685c0,0.13027 0.00122,0.2604 0.00346,0.39042c0.03537,-0.02419 0.08284,-0.04042 0.14655,-0.04042c0.06597,0 0.11453,0.0174 0.15027,0.04303c-0.00051,-0.07623 0.02707,-0.18375 0.17278,-0.23089c0.23786,-0.07695 0.31481,0.1609 0.31481,0.1609c0.91815,2.83791 1.63578,5.75839 3.14005,8.33906c1.64944,2.8297 3.28459,5.66471 4.8895,8.51952c0.55947,0.31642 1.08612,0.6628 1.50113,1.04516c-0.00254,-0.06649 -0.0078,-0.132 -0.01666,-0.19623c-0.00986,-0.07148 -0.02053,-0.14293 -0.03196,-0.21437c-0.52044,-1.0318 -1.02693,-2.07119 -1.54352,-3.10437c0,0 -0.1118,-0.2236 0.11181,-0.33541c0.2236,-0.11181 0.33541,0.1118 0.33541,0.1118c0.16537,0.33074 0.33149,0.66115 0.49781,0.99149c-0.24528,-0.73812 -0.5259,-1.46444 -0.79475,-2.17003l-0.16028,-0.42064c0,0 -0.08901,-0.23362 0.1446,-0.32263c0.23361,-0.08901 0.32263,0.1446 0.32263,0.1446l0.16028,0.42065c0.53036,1.39193 1.08976,2.86387 1.33679,4.35888c0.24018,0.48278 0.47831,0.96653 0.71262,1.45205l-0.01136,0.05744h0.01805v0.4c0,0.13807 -0.11193,0.25 -0.25,0.25c-0.05981,0 -0.1147,-0.021 -0.15773,-0.05603l-0.19397,-0.15518c-0.0089,0.15377 -0.0226,0.30752 -0.04148,0.46121h0.04318v0.5c0,0.13807 -0.11193,0.25 -0.25,0.25c-0.08646,0 -0.16267,-0.04389 -0.20757,-0.11061l-0.27268,-0.39374c-0.46036,-0.66474 -0.89772,-1.32101 -1.2968,-2.02217c-1.05131,-0.69104 -2.09713,-1.40804 -3.18894,-2.0181l-0.15596,-0.08714c0,0 -0.21824,-0.12195 -0.0963,-0.34019c0.12195,-0.21824 0.34019,-0.09629 0.34019,-0.09629l0.15596,0.08714c0.56693,0.31678 1.36373,0.67025 2.17037,1.07734c-1.48039,-2.6228 -2.98532,-5.22981 -4.50234,-7.83234c-0.02388,-0.04096 -0.04756,-0.08201 -0.07106,-0.12314c0.10224,0.20448 0.20287,0.40573 0.3015,0.60301c0.36248,0.72496 1.06544,2.30276 -0.12367,2.04739c0.62169,1.15821 1.12208,2.34868 1.32322,3.5528l0.04107,-0.0128l0.14705,0.47178c0.00847,0.0251 0.01306,0.052 0.01306,0.07996c0,0.13807 -0.11193,0.25 -0.25,0.25c-0.06559,0 -0.12528,-0.02526 -0.16988,-0.06659c-0.24524,-0.22577 -0.85778,-0.78966 -1.10302,-1.01542c-1.20569,-1.10995 -2.36047,-2.09519 -3.45023,-3.15005c0.22124,0.50625 0.43246,1.01671 0.64467,1.52956c0.23547,0.56905 1.03103,3.51159 -0.41424,2.43185c-1.39538,-1.04246 -2.51602,-3.51769 -3.44532,-4.97802c0,0 -0.13422,-0.21091 0.0767,-0.34513c0.21091,-0.13422 0.34513,0.0767 0.34513,0.0767c0.71561,1.12453 1.43147,2.22803 2.22715,3.29767c0.2994,0.40249 0.59287,0.80888 0.88327,1.21792c0.07261,0.10227 0.20757,0.32513 0.29748,0.4781c-0.2559,-0.54692 -0.18312,-1.38604 -0.43218,-1.98791c-0.38136,-0.92162 -0.75912,-1.8355 -1.19929,-2.7307l-0.02149,-0.0437c-0.61476,-0.65837 -1.20548,-1.3625 -1.7693,-2.15186c0,0 -0.14531,-0.20343 0.05813,-0.34874c0.20344,-0.14531 0.34874,0.05812 0.34874,0.05812c0.43666,0.61131 0.88931,1.17022 1.35677,1.69583c0.17697,-0.03813 0.26414,0.13917 0.26414,0.13917l0.15939,0.32417c1.36082,1.44985 2.83972,2.67438 4.40913,4.11917c0.11201,0.10312 0.22402,0.20623 0.33603,0.30934c-0.22606,-0.56498 -0.32278,-1.27946 -0.59402,-1.75246c-0.55463,-0.96722 -1.11016,-1.93387 -1.66658,-2.90001c-1.56371,-1.78531 -2.55567,-3.64962 -3.88267,-5.86128c0,0 -0.12862,-0.21438 0.08575,-0.343c0.21437,-0.12862 0.343,0.08575 0.343,0.08575c0.55748,0.92914 1.05313,1.79291 1.55689,2.61449c0.01899,-0.03652 0.05132,-0.07204 0.10354,-0.10225c0.21639,-0.1252 0.34159,0.09119 0.34159,0.09119l0.05799,0.10023c0.66197,1.14411 1.50171,2.36323 2.26955,3.63117c0.24244,0.25484 0.49892,0.50909 0.77223,0.76367c0.25058,0.34981 -0.59283,-1.76418 -0.8342,-2.24692c-0.80996,-1.61992 -1.61992,-3.23985 -2.42988,-4.85977c-0.03495,0.20388 -0.08561,0.39992 -0.15724,0.58424l0.12876,0.06438l-0.19758,0.39516c-0.04009,0.08456 -0.12623,0.14304 -0.22603,0.14304c-0.03555,0 -0.06938,-0.00742 -0.1,-0.0208c-0.03062,0.01338 -0.06445,0.0208 -0.1,0.0208c-0.10108,0 -0.18814,-0.05998 -0.22754,-0.1463l-0.20898,-0.43295l0.00502,-0.00242l-0.01291,-0.0157c-0.26701,-0.88488 -0.5423,-1.76719 -0.80566,-2.65255c-0.04177,0.03135 -0.09368,0.04993 -0.14993,0.04993c-0.09993,0 -0.18618,-0.05863 -0.22619,-0.14338l-0.18375,-0.36888c-0.69332,-1.3925 -0.94158,-2.80176 -1.42722,-4.25868c0,0 -0.07906,-0.23717 0.15811,-0.31623c0.23717,-0.07906 0.31623,0.15812 0.31623,0.15812c0.42053,1.26159 0.65534,2.48407 1.16924,3.69199c-0.22712,-0.81204 -0.43676,-1.6287 -0.61355,-2.45425c-0.64452,-3.00981 -1.04286,-5.87046 -1.04286,-8.95869c0,0 0,-0.25 0.25,-0.25c0.25,0 0.25,0.25 0.25,0.25c0,2.77008 0.3244,5.34999 0.86025,8.02661c-0.04173,-0.49327 -0.08623,-0.98281 -0.14274,-1.46315l-0.01579,-0.13424c0,0 -0.02921,-0.24829 0.21908,-0.2775c0.24829,-0.02921 0.27749,0.21908 0.27749,0.21908l0.01579,0.13424c0.15843,1.34666 0.81455,3.60411 0.53347,5.15468c0.25563,0.89018 0.52917,1.77563 0.79844,2.66282c0.01047,-0.24982 0.03924,-0.51099 0.06909,-0.76398c-0.05415,-0.91799 -0.11508,-1.83485 -0.11508,-2.75856c0,-2.10022 0,-4.20045 0,-6.30067c-0.04352,0.03673 -0.09976,0.05888 -0.16117,0.05888c-0.12896,0 -0.23511,-0.09764 -0.24856,-0.22303l-0.06,-0.49312c-0.3418,-2.80913 -0.92888,-5.52117 -1.12461,-8.35026c-0.04529,0.04559 -0.10803,0.07382 -0.17737,0.07382c-0.13181,0 -0.2398,-0.10201 -0.24932,-0.23139l-0.04179,-0.49585l0.04818,-0.00406c-0.09293,-0.48601 -0.12986,-0.96529 -0.17414,-1.49064l-0.01034,-0.12269c0,0 -0.02099,-0.24912 0.22813,-0.27011c0.24911,-0.02099 0.27011,0.22812 0.27011,0.22812l0.01034,0.12269c0.02873,0.34091 0.11364,0.72666 0.11771,1.09101c0.94244,-2.32924 1.89361,-4.6538 2.80186,-6.99656c-0.36955,-2.14247 -0.42309,-4.27964 -0.42918,-6.44296c-0.38004,2.24452 -0.90724,4.85396 -2.25908,6.12075l0.06404,0.07313l-0.37524,0.32863c-0.0441,0.03903 -0.10209,0.06272 -0.16562,0.06272c-0.13807,0 -0.25,-0.11193 -0.25,-0.25c0,-0.01185 0.00082,-0.02351 0.00242,-0.03492c0.00697,-0.05572 0.02092,-0.1673 0.03714,-0.29712c-0.3855,1.47356 -0.87447,2.95203 -1.56295,4.20155c-0.03126,2.49368 -0.14452,4.94331 -0.40348,7.44656c-0.35816,3.46216 -0.27125,6.98997 -0.34578,10.46961c-0.02089,0.97556 -0.0413,1.95011 -0.0413,2.92591c0,0.46024 0.04462,1.84042 0.03053,1.38039c-0.04855,-1.58434 0.55837,-3.10918 0.66447,-4.713l0.00555,-0.08389c0,0 0.0165,-0.24946 0.26595,-0.23296c0.24946,0.0165 0.23296,0.26595 0.23296,0.26595l-0.00555,0.0839c-0.04251,0.6426 -0.37223,4.8777 -0.92443,5.11921c-1.11658,0.48834 -0.7414,-4.13321 -0.72806,-4.75621c0.07481,-3.49336 -0.01125,-7.0345 0.34832,-10.51034c0.22839,-2.20773 0.34261,-4.37265 0.38716,-6.56382c-0.03609,0.05187 -0.07263,0.10314 -0.10966,0.1538l0.03773,0.01999l-0.23161,0.43724c-0.04116,0.0816 -0.12572,0.13757 -0.22335,0.13757c-0.13807,0 -0.25,-0.11193 -0.25,-0.25v-0.5c0,-3.00001 0.00011,-6.00002 0.00041,-9.00003c0.00029,-2.99878 0.40103,-5.99792 0.3996,-8.9878c0,0 0,-0.25 0.25,-0.25c0.09169,0 0.14975,0.03363 0.18652,0.07621c0.04313,-0.17676 0.0824,-0.35781 0.11418,-0.54441c0.13333,-0.78281 0.22609,-1.58726 0.29135,-2.39736c-0.35203,0.39979 -0.63514,0.86599 -0.93234,1.3164c-0.00136,0.04754 -0.00224,0.0951 -0.0026,0.14271l-0.00462,0.49969c-0.00108,0.13714 -0.11259,0.24798 -0.25,0.24798c-0.06892,0 -0.13132,-0.02788 -0.17654,-0.07298c-0.04012,0.08447 -0.12622,0.14288 -0.22595,0.14288c-0.08208,0 -0.15492,-0.03956 -0.2005,-0.10065c-0.01272,0.0174 -0.02257,0.02727 -0.02257,0.02727l-0.24959,0.25003c-0.47699,0.47635 -0.82935,1.01184 -1.26218,1.49985l0.05053,0.03683l-0.29263,0.40151c-0.04531,0.06373 -0.11975,0.10531 -0.2039,0.10531c-0.13807,0 -0.25,-0.11193 -0.25,-0.25c0,-0.01015 0.00061,-0.02017 0.00179,-0.03001l0.05262,-0.49368l0.00517,0.00055l-0.00252,-0.01894c0.38182,-1.47382 0.47031,-3.03019 1.15017,-4.38989c0,0 0.11181,-0.22361 0.33541,-0.11181c0.2236,0.11181 0.11181,0.33541 0.11181,0.33541c-0.55078,1.10157 -0.69247,2.34516 -0.94398,3.55852c0.27003,-0.38044 0.63277,-0.73462 0.89385,-0.99692l0.24959,-0.25003c0,0 0.15933,-0.15962 0.32693,-0.0243v-0.29907h0.05776c-0.06241,-0.48847 -0.05776,-0.96103 -0.05776,-1.5v-0.4c0,0 0,-0.25 0.25,-0.25c0.01758,0 0.03392,0.00124 0.04912,0.00353c0.01993,-1.66436 0.29211,-3.42456 0.29891,-4.92009l0.00197,-0.43458c0,0 0.00114,-0.25 0.25114,-0.24886c0.25,0.00114 0.24886,0.25114 0.24886,0.25114l-0.00198,0.43458c-0.002,0.43951 0.04621,1.16666 0.08888,1.99853c0.00881,-0.14452 0.01343,-0.28925 0.0131,-0.43425c0,0 0,-0.25 0.25,-0.25c0.25,0 0.25,0.25 0.25,0.25c-0.00214,1.01082 -0.24096,2.00703 -0.45595,3.00587c-0.00863,0.34536 -0.02691,0.67879 -0.05843,0.98851c0.15107,-0.20117 0.31135,-0.39377 0.4876,-0.57115c0,0 0.09428,-0.09428 0.21398,-0.07629c0.06274,-0.97988 0.09035,-1.96202 0.10583,-2.91833l0.007,-0.43265c0,0 0.00405,-0.24997 0.25401,-0.24592c0.05237,0.00085 0.09358,0.01248 0.12602,0.03036c1.0085,-2.13946 1.78649,-4.37252 2.84632,-6.4922c0,0 0.11181,-0.22361 0.33541,-0.11181c0.2236,0.11181 0.11181,0.33541 0.11181,0.33541c-1.06332,2.12664 -1.77596,4.38124 -2.85153,6.49664l0.27792,-0.20845c0,0 0.2,-0.15 0.35,0.05c0.15,0.2 -0.05,0.35 -0.05,0.35l-0.79798,0.59849c-0.03274,0.02511 -0.07188,0.04231 -0.11454,0.04872c-0.00852,0.76677 -0.01123,1.6508 -0.03807,2.57529c0.05324,-0.16728 0.10772,-0.33446 0.16342,-0.50155c0,0 0.07906,-0.23717 0.31623,-0.15811c0.23717,0.07906 0.15812,0.31623 0.15812,0.31623c-0.28916,0.8675 -0.54497,1.73701 -0.76498,2.61316c-0.11396,1.25933 -0.31449,2.48037 -0.67364,3.47835c-0.03009,0.22164 -0.05781,0.44405 -0.08315,0.66729l-0.05604,0.49376c-0.00886,0.08871 -0.0641,0.16377 -0.14111,0.20056c-0.11635,1.84677 -0.26767,3.6955 -0.26785,5.54456c-0.00027,2.77631 -0.00038,5.55261 -0.00041,8.32891c0.08543,-0.20465 0.18977,-0.41442 0.29541,-0.62039c0.00313,-0.36426 0.00459,-0.72963 0.00459,-1.09638c0,0 0,-0.25 0.25,-0.25c0.25,0 0.25,0.25 0.25,0.25c0,0.0006 0,0.00119 0,0.00179c0.73866,-2.1893 1.441,-4.32809 1.93314,-6.58829c0.31913,-1.46566 0.63827,-2.93131 0.9574,-4.39697l0.01518,-0.06971c0,0 0.03368,-0.15466 0.17051,-0.19106c0.01623,-0.25464 0.02463,-0.50673 0.02377,-0.75575c0,0 0,-0.25 0.25,-0.25c0.25,0 0.25,0.25 0.25,0.25c-0.00851,2.75944 -1.08792,5.84315 -1.45209,8.63429c0.63487,-1.97094 1.2978,-3.9652 1.84987,-6.02139c-0.04234,-0.04478 -0.0683,-0.10522 -0.0683,-0.17171c0,-0.02926 0.00503,-0.05734 0.01426,-0.08343l0.15395,-0.46957l0.02168,0.00711c0.17954,-2.92029 1.16708,-5.84155 1.17915,-8.82248l0.00146,-0.36271c0,0 0.00101,-0.25 0.25101,-0.24899c0.25,0.00101 0.24899,0.25101 0.24899,0.25101l-0.00146,0.36271c-0.0053,1.31055 -0.11757,2.60996 -0.2895,3.90348c0.27994,-1.08283 0.56968,-2.16296 0.86786,-3.24135c-1.11351,-1.77282 -0.95228,-5.44026 -0.46407,-6.9049c0,0 0.07906,-0.23717 0.31623,-0.15811c0.23717,0.07906 0.15812,0.31623 0.15812,0.31623c-0.06077,0.18231 -0.11655,0.41298 -0.16457,0.67907c0.1774,0.04298 0.1774,0.24187 0.1774,0.24187c0,0.14283 -0.00998,0.37378 -0.01625,0.61301c0.05423,-0.05239 0.14691,-0.10219 0.27805,-0.03662c0.03406,0.01703 0.06034,0.03666 0.08041,0.05769c0.07097,-0.08293 0.15005,-0.15973 0.22966,-0.23117l0.2114,-0.1892c0,0 0.05045,-0.04515 0.12234,-0.06221c0.01429,-0.0727 0.06493,-0.20151 0.24438,-0.20151c0.25,0 0.25,0.25 0.25,0.25c0,0.58619 -0.38329,2.44492 -0.59637,3.55567c0.00494,0.00118 0.00996,0.0025 0.01506,0.00396c0.0652,0.01863 0.10766,0.04989 0.13493,0.08557c0.04451,-0.06126 0.12822,-0.12798 0.2703,-0.08401c0.23882,0.07392 0.16491,0.31274 0.16491,0.31274l-0.06679,0.21581c-0.10972,0.3528 -0.18651,1.44626 -0.75096,1.26486c-0.01773,0.06363 -0.03542,0.12727 -0.05309,0.19091c0.29854,0.3803 0.68657,0.59833 1.18268,0.56741c0.16126,-1.36874 0.39835,-2.78052 0.39895,-3.46538l0.00039,-0.44775c0,0 0.00021,-0.25 0.25021,-0.24979c0.25,0.00021 0.24979,0.25022 0.24979,0.25022l-0.00039,0.44775c-0.00001,0.0093 -0.00001,0.01862 -0.00001,0.02793c0.03646,-0.11907 0.07418,-0.23741 0.11324,-0.35495c0,0 0.07906,-0.23717 0.31623,-0.15812c0.23717,0.07906 0.15811,0.31623 0.15811,0.31623c-0.23645,0.70678 -0.42275,1.44429 -0.57356,2.19565c-0.00056,0.42728 -0.00735,0.85841 -0.02796,1.28805c0.24114,-0.0677 0.46144,-0.15508 0.66414,-0.2604c0.07613,-0.58555 0.16799,-1.16676 0.22984,-1.7304l0.02186,-0.19922c0,0 0.02727,-0.2485 0.27578,-0.22124c0.24851,0.02727 0.22124,0.27578 0.22124,0.27578l-0.02186,0.19922c-0.03244,0.29562 -0.04092,0.72402 -0.04944,1.20605c0.06164,-0.05524 0.12137,-0.1127 0.17934,-0.17229c0.24551,-0.67252 0.52997,-1.33615 0.85698,-2.02729c0.11189,0.37623 0.24532,0.74318 0.39885,1.09942c-0.24209,0.43957 -0.50655,0.83638 -0.81549,1.17762c-0.36129,1.0034 -0.63343,2.03051 -0.83123,3.21695l-0.08155,0.48913c-0.01791,0.1205 -0.12179,0.21295 -0.24728,0.21295c-0.13655,0 -0.24753,-0.10949 -0.24995,-0.24547l-0.01034,-0.49925l0.06453,-0.00134c-0.11409,-0.71445 -0.08678,-1.45559 -0.01019,-2.19682c-0.19527,0.08112 -0.40398,0.14886 -0.62794,0.20215c-0.07126,0.91837 -0.22059,1.81982 -0.52328,2.65143l0.04914,0.00819l-0.08152,0.48914c-0.0179,0.12051 -0.12179,0.21296 -0.24728,0.21296c-0.13807,0 -0.25,-0.11193 -0.25,-0.25c0,-0.00448 0.00011,-0.00894 0.00035,-0.01336l0.01884,-0.40643l0.00202,0.00009l-0.0017,-0.00563c0.01758,-0.19366 0.03564,-0.38858 0.05441,-0.58447c-0.0462,-0.52973 -0.00496,-1.23114 0.07115,-1.97462c-0.51956,0.011 -0.94243,-0.17815 -1.28263,-0.50684c-0.58428,2.12704 -1.13509,4.26124 -1.64202,6.40994c-0.06289,0.26458 -0.14324,0.51092 -0.23434,0.75392c0.11392,0.06824 0.11392,0.21628 0.11392,0.21628c0,2.54615 -0.03723,5.0444 0.33136,7.54621c0.03203,-0.00091 0.06806,0.00495 0.10838,0.02046c0.23334,0.08974 0.14359,0.32308 0.14359,0.32308c-0.04583,0.11914 -0.09175,0.23824 -0.13778,0.35729c0.03917,0.21874 0.08176,0.43753 0.12805,0.65643c0.00947,0.04476 0.01893,0.08952 0.0284,0.13428c0.15494,-2.7639 0.96603,-5.97132 1.08271,-8.86393l0.01548,-0.38388c0,0 0.01008,-0.2498 0.25987,-0.23972c0.02295,0.00092 0.04371,0.00387 0.06248,0.00847c-0.04621,-0.37785 -0.08702,-0.75649 -0.12153,-1.13603c0,0 -0.02264,-0.24898 0.22634,-0.27161c0.24898,-0.02264 0.2716,0.22634 0.2716,0.22634c0.26406,2.90473 0.90119,5.75611 1.50103,8.60975c0,-1.7957 0,-3.59141 0,-5.38712c0,0 0,-0.25 0.25,-0.25c0.06624,0 0.11493,0.01755 0.15072,0.04335c-0.00046,-0.17389 -0.00074,-0.34776 -0.00074,-0.5216c0,-0.66666 0.00002,-1.33334 0.00002,-2v-0.47175c0,-0.00001 0.00001,-0.25 0.25,-0.25c0.25,0 0.25,0.25 0.25,0.25c0,0.66666 -0.00002,1.80509 -0.00002,2.47176c-0.00002,2.16879 0.01456,4.33749 -0.03851,6.50567c-0.00627,0.25601 0.07448,1.00783 -0.05701,1.53605c-0.03831,0.83972 -0.12768,1.66232 -0.30445,2.442c0,0.04817 0,0.09635 0,0.14453v0.5c0,0.13807 -0.11193,0.25 -0.25,0.25c-0.13807,0 -0.25,-0.11193 -0.25,-0.25c0,-0.03333 0,-0.46667 0,-0.5c0,-0.3 0,-0.6 0,-0.9c0,-0.43016 0,-0.86033 0,-1.29049c-0.23328,-0.44126 -0.392,-1.75532 -0.44366,-2.00197c-0.46311,-2.21125 -0.95384,-4.4202 -1.28503,-6.65257c-0.04871,2.76307 0.3376,6.63456 -1.21684,8.94827l0.05537,0.0338l-0.25818,0.42294c-0.04343,0.07393 -0.12377,0.12357 -0.21571,0.12357c-0.12199,0 -0.22357,-0.08738 -0.24558,-0.20296c-0.02905,-0.13737 -0.13084,-0.61863 -0.18281,-0.86434c-0.87538,2.23856 -1.78214,4.46417 -2.69112,6.68963l-0.01566,0.01583l0.00492,0.00308l-0.07917,0.12628c0.00226,-0.00019 0.00454,-0.00036 0.00684,-0.00052c0.24945,-0.01663 0.26608,0.23282 0.26608,0.23282c0.12442,1.86632 0.42235,3.68057 0.70968,5.50488c0.03152,-0.77696 0.10248,-1.58295 0.17542,-2.36746c-0.06522,-0.56453 -0.12668,-1.12966 -0.1833,-1.69591c0,0 -0.02488,-0.24876 0.22388,-0.27363c0.05216,-0.00521 0.09447,0.0016 0.12878,0.01563c0.02823,-0.41454 0.04609,-0.80685 0.04609,-1.16687v-0.4c0,0 0,-0.25 0.25,-0.25c0.25,0 0.25,0.25 0.25,0.25v0.4c0,1.34291 0.23036,3.27088 0.21577,5.0926c0.17768,-0.58993 0.40701,-1.18818 0.51268,-1.61986c0.3865,-1.57902 0.39588,-3.31107 0.55612,-4.92918l0.01666,-0.16819c0,0 0.02463,-0.24878 0.27342,-0.22415zM220.61994,283.75272v0.2495c0,0.57761 0.06863,1.23851 0.0711,1.88318c0.6466,1.29319 1.37126,2.74251 2.07216,4.14432c-0.88567,-2.01762 -1.46939,-4.16453 -2.14326,-6.27699zM223.1022,239.19623c-0.46942,1.02388 -0.82568,0.52348 -1.01912,-0.22866c-0.05713,1.2325 0.04048,2.65127 0.41826,3.67254c-0.01226,-0.70799 0.35422,-2.28045 0.60085,-3.44388zM230.49853,302.56937c-0.01561,-0.15948 -0.01187,-0.32524 -0.00182,-0.49284c-0.18296,-0.10905 -0.36504,-0.22071 -0.5465,-0.33431c0.1776,0.27823 0.36075,0.55259 0.54833,0.82715zM222.51146,239.11945c-0.02301,0.01583 -0.04879,0.02789 -0.07647,0.03533c0.03331,0.12152 0.09431,0.11803 0.20161,-0.11876z" fill="url(#color-11)"/><path d="M232.40711,259.92316c0.07906,0.23717 -0.15812,0.31623 -0.15812,0.31623l-0.25132,0.08378c-0.31467,0.10489 -0.63479,0.21859 -0.95882,0.3355c-0.73447,1.84667 -1.73217,3.81872 -2.96112,4.97181l0.05173,0.04371l-0.32156,0.38057c-0.04586,0.055 -0.11489,0.09 -0.1921,0.09c-0.08527,0 -0.16057,-0.04269 -0.20569,-0.10787c-1.07959,2.43501 -2.75669,6.02278 -4.92974,7.60298l0.03617,0.04522l-0.38887,0.31111c-0.04303,0.03502 -0.09793,0.05602 -0.15773,0.05602c-0.13807,0 -0.25,-0.11193 -0.25,-0.25c0,-0.00139 0.00001,-0.00277 0.00003,-0.00416l0.00607,-0.42508l0.00035,0.00001l-0.00032,-0.00159c0.07548,-2.80442 0.39387,-5.54752 0.39387,-8.36918c0,0 0,-0.25 0.25,-0.25c0.25,0 0.25,0.25 0.25,0.25c0,2.78103 -0.30862,5.48752 -0.39031,8.24954c1.27342,-2.65598 3.6886,-5.06033 4.92334,-7.87014c0.58364,-1.32601 1.16729,-2.65201 1.75093,-3.97801c-0.53057,0.16657 -1.06282,0.31088 -1.59069,0.41051l0.01381,0.03453l-0.45898,0.18359c-0.03012,0.01287 -0.06328,0.01998 -0.09811,0.01998c-0.13807,0 -0.25,-0.11193 -0.25,-0.25c0,-0.08283 0.04028,-0.15625 0.10233,-0.20174l0.39767,-0.29826c1.17255,-0.87702 2.34095,-1.98136 3.41,-3.15619c0.17805,-0.53547 0.34547,-1.073 0.49962,-1.61249c0,0 0.06868,-0.24038 0.30906,-0.1717c0.24038,0.06868 0.1717,0.30906 0.1717,0.30906c-0.05087,0.17806 -0.10318,0.35592 -0.15682,0.53355c0.54568,-0.64892 1.05502,-1.30635 1.51301,-1.94754c0,0 0.14531,-0.20343 0.34874,-0.05812c0.20344,0.14531 0.05812,0.34875 0.05812,0.34875c-0.67417,0.94385 -1.45634,1.91867 -2.3011,2.85217c-0.2089,0.62339 -0.43185,1.244 -0.66471,1.86166c0.13139,-0.03148 0.26055,-0.06191 0.38607,-0.09142c0.34231,-0.74528 0.64816,-1.50705 0.89362,-2.29991l0.04388,-0.14175c0,0 0.07394,-0.23882 0.31276,-0.16488c0.23881,0.07394 0.16488,0.31275 0.16488,0.31275l-0.04388,0.14175c-0.18069,0.58365 -0.40595,1.2653 -0.67374,1.98492c0.21293,-0.05345 0.39959,-0.10439 0.54844,-0.154l0.25132,-0.08377c0,0 0.23717,-0.07905 0.31623,0.15812zM228.51013,260.73414c0.2537,-0.08767 0.5228,-0.1684 0.79559,-0.24342c0.08813,-0.20022 0.17626,-0.40045 0.26439,-0.60068l0.10554,-0.23979c-0.38204,0.37683 -0.77173,0.74001 -1.16552,1.08389zM230.0103,259.35344c0.00739,-0.02042 0.01477,-0.04085 0.02213,-0.06128c-0.01843,0.01881 -0.03687,0.03759 -0.05533,0.05634c0.01068,0.00084 0.02174,0.00246 0.0332,0.00494zM229.03415,263.19406c0.40662,-0.74463 0.80962,-1.48549 1.18331,-2.23821c-0.10668,0.03832 -0.21365,0.0765 -0.32084,0.11433c-0.27874,0.71207 -0.56836,1.42011 -0.86247,2.12388z" fill="url(#color-12)"/><path d="M228.49705,257.78695c0.21527,0.12712 0.08816,0.34239 0.08816,0.34239l-0.13663,0.23138c-0.20684,0.35029 -0.37976,0.80891 -0.66099,1.11437c0.10426,0.15876 -0.04088,0.3039 -0.04088,0.3039l-0.35356,0.35356l-0.10331,-0.10331l-0.22663,0.12413c0.0216,-0.08494 0.04479,-0.16712 0.06947,-0.24702l-0.13157,-0.07769l0.25423,-0.43054l0.05189,0.03064c0.19151,-0.45292 0.43498,-0.85516 0.7108,-1.32227l0.13663,-0.23138c0,0 0.12712,-0.21527 0.34239,-0.08816z" fill="url(#color-13)"/><path d="M216.53112,270.92223c0.00425,0.00358 0.00833,0.00718 0.01223,0.0108c-0.1405,-0.93306 -0.22066,-1.85498 -0.22342,-2.73081c0,0 0,-0.25 0.25,-0.25c0.25,0 0.25,0.25 0.25,0.25c-0.00802,2.26735 0.54946,4.87858 1.31704,7.15154c0.01048,-0.00101 0.02146,-0.00154 0.03297,-0.00154c0.25,0 0.25,0.25 0.25,0.25c0,0.18304 0,0.36608 0,0.54913c0.08795,0.23623 0.17788,0.46756 0.26931,0.69309c0.47715,1.17697 0.87491,2.37547 1.23069,3.58598c0,-0.0094 0,-0.0188 0,-0.0282c0,0 0,-0.25 0.25,-0.25c0.25,0 0.25,0.25 0.25,0.25c0,0.61104 0.0009,1.2221 0.00194,1.83319c0.40858,1.5414 0.77972,3.09445 1.18887,4.63992c0.01884,-1.58078 0.30128,-3.4492 0.30689,-4.46079l0.0023,-0.4137c0,0 0.00138,-0.24999 0.25138,-0.2486c0.25,0.00139 0.24861,0.25138 0.24861,0.25138l-0.0023,0.4137c-0.01089,1.9612 0.39092,4.55569 -0.18277,6.52217l0.06386,0.01065l-0.08152,0.48914c-0.0179,0.12051 -0.12179,0.21296 -0.24728,0.21296c-0.12677,0 -0.2315,-0.09436 -0.2478,-0.21667l-0.0669,-0.44583c-0.17012,-0.63864 -0.33961,-1.27746 -0.50923,-1.91624c-0.16846,-0.6344 -0.3302,-1.27018 -0.49054,-1.90598c0.0122,0.74602 -0.00062,1.49556 -0.12007,2.21251l0.05107,0.00087l-0.00845,0.4994c-0.00198,0.13637 -0.11314,0.2463 -0.24997,0.2463c-0.11246,0 -0.20758,-0.07425 -0.23899,-0.17641l-0.12194,-0.36581c-0.10115,0.95605 -0.24448,1.91145 -0.56672,2.71477c-0.04274,0.10655 -0.24213,0.41942 -0.46104,0.71318c0.81557,0.81433 1.66903,1.12383 2.10931,-0.75577l0.07873,-0.31493c0,0 0.06063,-0.24253 0.30317,-0.1819c0.24254,0.06063 0.1819,0.30317 0.1819,0.30317l-0.07873,0.31493c-0.62098,2.36461 -1.77864,1.96132 -2.85323,0.95837c-0.14524,0.16628 -0.27448,0.2825 -0.3443,0.27725c-0.3652,-0.02746 -0.61383,-0.81527 -0.7788,-1.5218c-0.21686,-0.2685 -0.41676,-0.52614 -0.59181,-0.74536c-1.84991,-2.98882 -2.94924,-6.27182 -3.68926,-9.68142c-0.57679,-2.23416 -0.7564,-4.1572 -0.7564,-6.4626c0,-0.89487 -0.29135,-1.9397 0.5382,-2.42361c0,0 0.2236,-0.1118 0.33541,0.1118c0.11181,0.2236 -0.11181,0.33541 -0.11181,0.33541c-0.52683,0.1899 -0.2618,1.42386 -0.2618,1.97639c0,2.27208 0.17503,4.14586 0.74286,6.34706c0.71841,3.30708 1.77282,6.48594 3.54249,9.39619c-0.90117,-3.35942 -1.75103,-6.63322 -2.40414,-10.0574c-0.42054,-2.94096 -0.98035,-5.90609 -0.98122,-8.88584c0,0 0,-0.25 0.25,-0.25c0.02341,0 0.04463,0.0022 0.06387,0.00617c-0.97819,-2.62917 -1.69311,-5.3631 -1.90538,-8.14919c-0.26655,-3.49844 -0.60849,-6.98654 -0.60849,-10.49587c0,-3.5 0,-7 0,-10.5c0,-2.38345 -0.86924,-7.0197 0.44199,-9.03868c0,0 0.13868,-0.20801 0.34669,-0.06933c0.20801,0.13868 0.06933,0.34669 0.06933,0.34669c-1.24552,1.80837 -0.35801,6.57744 -0.35801,8.76132c0,3.5 0,7 0,10.5c0,3.49657 0.34146,6.97214 0.60704,10.45789c0.26265,3.44735 1.31605,6.79416 2.65991,9.98117c0.13958,0.51949 0.26592,-0.09517 0.5172,-0.39307l0.17475,-0.20717c0,0 0.16118,-0.1911 0.35228,-0.02992zM216.56104,271.27452l-0.17475,0.20717c-0.58482,0.69335 -0.61498,1.11113 -1.33785,0.31102c-0.21757,-0.50888 -0.42728,-1.0224 -0.62725,-1.54015c0.02938,2.86745 0.56916,5.72248 0.97316,8.55326c0.65877,3.44875 1.51681,6.74289 2.4257,10.1287c0.05691,0.212 0.06404,0.50151 0.06412,0.80062c0.25619,0.3448 0.54656,0.72698 0.84758,1.05878c0.71143,-1.12684 0.87038,-4.802 0.98153,-5.5641l0.00929,-0.06367c0,0 0.02689,-0.18442 0.19347,-0.21158c-0.00036,-0.89022 0.00105,-1.78046 0.00228,-2.67068c-0.42752,-1.60749 -0.89792,-3.20177 -1.49836,-4.76051c0,1.64914 0,3.29827 0,4.94741c0.20774,1.51883 0.39866,3.16262 0.14677,4.61335l0.05268,0.00036l-0.00334,0.49977c-0.00079,0.1374 -0.11241,0.24854 -0.25,0.24854c-0.12289,0 -0.22507,-0.08866 -0.24606,-0.20551l-0.09715,-0.48575c-0.06625,-0.33526 -0.09585,-0.67431 -0.10757,-1.01506c-0.23876,-1.55385 -0.05226,-3.96412 -0.17945,-4.98167l-0.01395,-0.11158c0,0 -0.0294,-0.23519 0.19807,-0.27619c0,-1.50566 0,-3.01133 0,-4.51699c-0.57024,-1.55081 -1.04875,-3.29293 -1.32989,-5.00996c-0.01492,0.02771 -0.02901,0.04443 -0.02901,0.04443zM218.35903,291.11393c0.02397,-0.00549 0.04749,-0.01343 0.07056,-0.02369c-0.18245,-0.18691 -0.36097,-0.3866 -0.5324,-0.58795c0.03183,0.40198 0.13505,0.68655 0.46184,0.61164z" fill="url(#color-14)"/><path d="M215.95303,253.35279c0.24943,-0.01691 0.26633,0.23252 0.26633,0.23252l0.02797,0.41259c0.04666,0.68822 0.14464,1.43778 0.23602,2.20753c0.01303,-0.08114 0.02636,-0.16257 0.03999,-0.24431c0,0 0.0411,-0.2466 0.2877,-0.2055c0.2466,0.0411 0.2055,0.2877 0.2055,0.2877c-0.1522,0.9132 -0.26731,1.78376 -0.33331,2.66906c0.00556,0.43093 -0.01074,0.8542 -0.05925,1.26251c-0.00268,0.14137 -0.00404,0.28375 -0.00404,0.42733v0.5c0,0.13807 -0.11193,0.25 -0.25,0.25c-0.13807,0 -0.25,-0.11193 -0.25,-0.25v-0.5c0,-0.04814 0.00015,-0.09615 0.00045,-0.14404c-0.60077,-1.40046 -0.28716,-4.97647 -0.3719,-6.22645l-0.02797,-0.4126c0,0 -0.01691,-0.24943 0.23252,-0.26633z" fill="url(#color-15)"/><path d="M223.39754,256.15375c0.24847,0.02761 0.22087,0.27608 0.22087,0.27608l-0.01349,0.12141c-0.06049,0.54441 -0.13593,4.17595 -0.96368,4.0456c-0.67183,-0.1058 -1.11733,-3.91397 -1.24565,-4.5052c-0.63468,-2.92871 -1.00285,-5.90104 -1.66943,-8.83401c0,0 -0.0554,-0.24379 0.18838,-0.29919c0.24379,-0.05541 0.29918,0.18838 0.29918,0.18838c0.66685,2.93417 1.03371,5.90947 1.67049,8.83877c0.19266,0.88765 0.82086,2.42004 0.88621,3.5125c0.02384,-0.19989 0.0481,-0.39704 0.06148,-0.51735c0.09203,-0.82824 0.18406,-1.65648 0.27608,-2.48471l0.01349,-0.12141c0,0 0.0276,-0.24847 0.27607,-0.22086z" fill="url(#color-16)"/><path d="M229.07956,258.79899c-1.01916,-2.92491 -1.55962,-5.7931 -1.55962,-8.88567c0,0 0,-0.25 0.25,-0.25c0.25,0 0.25,0.25 0.25,0.25c0,3.03707 0.529,5.84833 1.53173,8.72102c0.43935,1.25978 0.88816,2.51673 1.31252,3.78164c0.11557,0.34446 0.2384,1.09061 0.39095,1.38925c-0.03672,0.11329 -0.07147,0.22748 -0.10422,0.34251c-0.90404,-0.88522 -1.71979,-4.34062 -2.07137,-5.34875z" fill="url(#color-17)"/><path d="M236.54886,255.18213c0.43013,-0.88361 0.24238,-1.93762 0.81306,-2.80748c0,0 0.13868,-0.20801 0.34669,-0.06933c0.20801,0.13868 0.06933,0.34668 0.06933,0.34668c-0.56175,0.82674 -0.35412,1.89379 -0.78061,2.75118c-0.48317,0.97135 -1.03934,2.01428 -1.60393,3.05478c-0.3253,0.20783 -0.63778,0.43397 -0.93598,0.67695c0.73037,-1.33026 1.48852,-2.7142 2.09143,-3.95279z" fill="url(#color-18)"/></g></g></g><path d="M169.78596,278.26241l13.72633,-0.22309c0,0 0.89633,10.89208 0.94882,14.07371c0.02652,1.60779 -0.6544,3.77325 -0.6544,3.77325h61.64591v14.27756c0,0 -27.99114,1 -51.76265,1c-23.77151,0 -23.90401,-1 -23.90401,-1z" fill="url(#color-19)" stroke="#000000" stroke-width="2" stroke-linecap="butt"/><path d="M251.67971,199.84378c-0.95078,1.40834 -2.64706,2.14763 -4.18693,0.60777c-0.05399,-0.05399 -0.10541,-0.10814 -0.15433,-0.16238l-0.78813,-0.26271c-0.78906,-0.26958 -1.54162,-0.65872 -2.23847,-1.11664c0,0 -0.83205,-0.5547 -0.27735,-1.38675c0.5547,-0.83205 1.38675,-0.27735 1.38675,-0.27735c0.24899,0.16898 0.50834,0.3262 0.77641,0.46635c-0.21544,-0.76557 -0.12904,-1.76768 0.19099,-2.21901c1.07698,-1.5188 4.11649,-1.16799 5.23336,-0.07049c0.54941,0.53987 0.79489,1.2416 0.81136,1.97145c0.03733,0.16332 0.06656,0.3377 0.08694,0.52357c0.0637,0.5811 -0.11723,1.16326 -0.17584,1.74489c-0.22159,0.06044 -0.44317,0.12087 -0.66476,0.1813z" fill="#000000" stroke="none" stroke-width="0.5" stroke-linecap="butt"/><path d="M226.46936,276.27175c0,-13.36737 9.62319,-24.82437 22.7759,-24.82437c13.15272,0 20.35109,11.25014 20.35109,24.6175c0,1.14156 4.4085,13.97532 4.11509,17.62379c-0.08341,1.03717 -1.43888,-0.73466 -2.29008,-1.19498c-1.67796,-0.90742 0.39486,5.61868 0.01046,8.1757c-0.03328,0.22134 -3.35151,-5.17057 -3.50153,-4.32882c-0.19958,1.11992 -0.38392,5.12461 -0.54208,6.20967c-0.8739,5.99545 -1.556,4.41169 -2.92533,0.34925c-0.36422,-1.08055 -1.5174,-3.04855 -1.89765,-2.06358c-0.78911,2.04411 0.06428,4.49341 -0.81386,5.90404c-1.09411,1.75755 -1.78548,-2.81222 -3.01633,-1.61348c-1.32058,1.28612 -1.54737,-1.48619 -3.09641,-0.6654c-1.08059,0.57257 -1.01985,2.5992 -2.24522,2.84222c-0.96929,0.19223 -2.22501,-2.27666 -3.28216,-2.27666c-13.15272,0 -23.64191,-15.38753 -23.64191,-28.7549z" data-paper-data="{&quot;index&quot;:null}" fill="#032f34" stroke="#000000" stroke-width="2" stroke-linecap="butt"/><path d="M227.38602,279.93842c0,-13.36737 9.62318,-24.82437 22.77591,-24.82437c13.15272,0 20.35109,11.25013 20.35109,24.6175c0,1.14156 4.4085,13.97532 4.11508,17.62379c-0.08341,1.03717 -1.43888,-0.73466 -2.29008,-1.19498c-1.67796,-0.90742 0.39486,5.61868 0.01047,8.1757c-0.03328,0.22134 -3.35152,-5.17057 -3.50153,-4.32882c-0.19958,1.11992 -0.38392,5.1246 -0.54208,6.20967c-0.8739,5.99546 -1.556,4.4117 -2.92533,0.34926c-0.36422,-1.08055 -1.5174,-3.04855 -1.89764,-2.06358c-0.78911,2.04411 0.06428,4.49341 -0.81387,5.90405c-1.0941,1.75755 -1.78548,-2.81222 -3.01632,-1.61348c-1.32058,1.28612 -1.54738,-1.48619 -3.09641,-0.6654c-1.08059,0.57257 -1.01985,2.5992 -2.24522,2.84222c-0.96928,0.19223 -2.225,-2.27665 -3.28215,-2.27665c-13.15272,0 -23.64191,-15.38753 -23.64191,-28.7549z" fill="url(#color-20)" stroke="#000000" stroke-width="2" stroke-linecap="butt"/><path d="" fill="#000000" stroke="none" stroke-width="0.5" stroke-linecap="butt"/><g><g><g><g stroke="#000000" stroke-width="2"><path d="M223.96377,211.84315c-15.2524,-1.86462 -23.27086,-11.22834 -21.51625,-25.58085c1.7546,-14.35252 11.79265,-21.50881 27.04505,-19.64419c15.2524,1.86462 23.70872,11.2512 21.95411,25.60371c-1.7546,14.35252 -12.2305,21.48595 -27.48291,19.62133z" fill="url(#color-21)" stroke-linecap="butt"/><path d="M205.30955,177.10736c0,0 7.63716,8.86183 10.71514,14.47792c3.19519,5.82995 9.70331,19.45405 9.70331,19.45405c0,0 -0.22952,0.97904 -1.76748,1.08875c-6.28529,0.44836 -49.0619,2.53724 -49.0619,2.53724c0,0 -0.98054,-1.76633 3.71501,-9.27971c1.84901,-2.95862 4.57819,-6.8084 8.59396,-11.79239c12.79703,-15.88242 18.10195,-16.48588 18.10195,-16.48588z" fill="url(#color-22)" stroke-linecap="round"/></g><g stroke="none" stroke-width="0.5" stroke-linecap="butt"><path d="M203.59574,187.2664c0.00309,0.0337 0.03671,0.49704 -0.44215,0.55004c-0.49697,0.055 -0.55197,-0.44196 -0.55197,-0.44196l0.14803,-0.68648c0.953,-0.77109 0.97733,-1.77601 1.5769,-2.82569c0.1046,-0.18313 0.23231,-0.35691 0.37406,-0.52491c-3.93234,2.73457 -8.10846,6.21606 -10.44722,10.08967c-0.67365,1.11001 -1.46705,2.05683 -1.60685,3.3578l-0.04362,0.36282c0,0 -0.05969,0.49642 -0.55612,0.43673c-0.49642,-0.05969 -0.43673,-0.55612 -0.43673,-0.55612l0.04362,-0.36282c0.1932,-1.47915 0.98014,-2.49721 1.74481,-3.75723c2.91125,-4.77469 8.4055,-8.93954 13.0478,-11.94283c0,0 0.12603,-0.08148 0.28465,-0.08611c0.04767,-0.10009 0.23266,-0.41291 0.62932,-0.26658c0.46909,0.17306 0.29605,0.64215 0.29605,0.64215c-0.49169,1.26438 -1.80054,1.93807 -2.47001,3.11814c-0.63177,1.11362 -0.71197,2.02437 -1.59056,2.89339z" fill="url(#color-23)"/><path d="M203.34611,189.55583c-0.055,-0.49697 0.44196,-0.55197 0.44196,-0.55197l-0.01795,0.08647c1.58171,-1.31981 2.99366,-4.35593 5.04453,-4.66724c0,0 0.34599,-0.03829 0.49254,0.23771c0.04858,0.01927 0.09909,0.04839 0.15096,0.08993c0.3903,0.31251 0.07779,0.70282 0.07779,0.70282c-2.70032,3.35253 -6.44196,5.71603 -9.06959,9.22002c-0.55068,0.73434 -2.16906,2.27142 -1.98279,3.21776l0.0275,0.24848c0,0 0.055,0.49697 -0.44196,0.55197c-0.49697,0.055 -0.55197,-0.44196 -0.55197,-0.44196l-0.0275,-0.24848c-0.09842,-1.44765 1.34295,-2.81594 2.17668,-3.92772c1.15223,-1.53652 2.5238,-2.85377 3.92666,-4.13189c-0.11445,-0.05703 -0.22284,-0.16879 -0.24687,-0.3859zM207.63571,186.12186c-0.21692,0.19912 -0.43615,0.42984 -0.65474,0.67798c0.22194,-0.22272 0.44047,-0.44843 0.65474,-0.67798z" fill="url(#color-24)"/><path d="M209.13215,193.41175c-0.28068,-0.06977 -0.35865,-0.26153 -0.37451,-0.41081c-2.96357,2.50696 -5.89569,5.03568 -8.78978,7.626c-1.49321,1.57292 -2.9373,2.92291 -3.91665,4.83134l0.22606,0.24963c0,0 0.27145,0.4199 -0.14846,0.69135c-0.4199,0.27145 -0.69135,-0.14846 -0.69135,-0.14846l-0.38091,-0.6893c0.77153,-2.40448 2.50274,-3.85156 4.21465,-5.65195c3.54607,-3.17905 7.26096,-7.1445 11.0897,-10.13126c0.44772,-0.78008 0.89284,-1.56246 1.45778,-2.27048c0,0 0.31251,-0.3903 0.70282,-0.07779c0.3903,0.31251 0.07779,0.70282 0.07779,0.70282c-0.0432,0.05375 -0.08562,0.10798 -0.12732,0.16267c0.14664,-0.0349 0.35648,-0.02606 0.51541,0.21979c0.27145,0.4199 -0.14846,0.69135 -0.14846,0.69135c-0.72836,0.44034 -1.45867,1.27652 -2.17922,2.04624c-0.23048,0.37216 -0.47644,0.73413 -0.75488,1.07503l-0.16681,0.71921c0,0 -0.12061,0.48523 -0.60584,0.36463z" fill="url(#color-25)"/><path d="M208.96391,205.98476c-0.46909,-0.17306 -0.29605,-0.64215 -0.29605,-0.64215l0.17296,-0.4528c0.14706,-3.46094 1.99678,-6.68773 3.73279,-9.60948c0.52958,-0.89129 1.68421,-1.75287 1.98015,-2.66245c0,0 0.17306,-0.46909 0.64215,-0.29605c0.46909,0.17306 0.29605,0.64215 0.29605,0.64215c-0.34734,0.87526 -1.03604,1.22374 -1.56689,1.99602c-2.01015,2.92428 -3.87584,6.57103 -4.10501,10.13257l-0.214,0.59614c0,0 -0.17306,0.46909 -0.64215,0.29605z" fill="url(#color-26)"/><path d="M213.23936,204.30545c-0.49976,0.01569 -0.51545,-0.48406 -0.51545,-0.48406l0.00834,-0.71819c1.34522,-1.77419 2.60467,-3.58524 3.99625,-5.32319c0,0 0.31251,-0.3903 0.70282,-0.07779c0.3903,0.31251 0.07779,0.70282 0.07779,0.70282c-1.31795,1.64601 -2.45118,3.41933 -3.82822,5.01452l0.04252,0.37045c0,0 0.01569,0.49976 -0.48406,0.51545z" fill="url(#color-27)"/><path d="M212.95162,208.1514c-0.09397,-0.49109 0.39712,-0.58507 0.39712,-0.58507l0.37078,-0.03952c0.85083,-1.10934 1.95115,-1.29293 3.09278,-2.02674c1.1827,-0.7602 1.9533,-1.87843 3.12493,-2.63585c0,0 0.4199,-0.27145 0.69135,0.14846c0.27145,0.4199 -0.14846,0.69135 -0.14846,0.69135c-1.86821,1.20772 -4.85438,3.00677 -6.24445,4.67927l-0.69898,0.1652c0,0 -0.49109,0.09397 -0.58507,-0.39712z" fill="url(#color-28)"/><path d="M196.8897,185.0136c-0.31933,-0.38474 0.0654,-0.70408 0.0654,-0.70408l0.75527,-0.62632c2.02703,-1.41631 5.66476,-2.81847 7.12713,-4.70921c0,0 0.31251,-0.3903 0.70282,-0.07779c0.3903,0.31251 0.07779,0.70282 0.07779,0.70282c-1.63647,1.99166 -5.13331,3.36734 -7.30168,4.87961l-0.72267,0.60037c0,0 -0.38474,0.31933 -0.70408,-0.0654z" fill="url(#color-29)"/><path d="M208.33397,201.09025c0.07443,0.11144 0.21509,0.39754 -0.07816,0.65771c-0.37402,0.33184 -0.70584,-0.04218 -0.70584,-0.04218l-0.25436,-0.91268c2.37426,-2.96033 4.25331,-6.73227 6.3723,-9.93495c0,0 0.27589,-0.41699 0.69288,-0.1411c0.41699,0.27589 0.1411,0.69288 0.1411,0.69288c-2.05846,3.11121 -3.89813,6.74524 -6.16792,9.6803z" fill="url(#color-30)"/><path d="M211.94664,200.02681c-0.3903,-0.31251 -0.07779,-0.70282 -0.07779,-0.70282l0.47466,-0.58891c1.3357,-1.12101 2.71534,-2.54346 3.80648,-3.90935c0,0 0.31251,-0.3903 0.70282,-0.07779c0.3903,0.31251 0.07779,0.70282 0.07779,0.70282c-1.11293,1.38699 -2.51229,2.84216 -3.87187,3.98323l-0.40927,0.51503c0,0 -0.31251,0.3903 -0.70282,0.07779z" fill="url(#color-31)"/><path d="M215.57252,204.59889c-0.0011,0.09261 -0.03187,0.48294 -0.47164,0.50745c-0.49923,0.02783 -0.52706,-0.47139 -0.52706,-0.47139l0.19907,-0.69573c0.70699,-0.49237 4.03776,-3.15959 3.83585,-3.74785c0,0 -0.055,-0.49697 0.44196,-0.55197c0.49697,-0.055 0.55197,0.44196 0.55197,0.44196c0.04237,1.41139 -2.67474,3.55 -4.03014,4.51754z" fill="url(#color-32)"/></g></g><path d="M206.08229,175.86651c-0.24812,-1.09714 0.8014,-1.77562 0.8014,-1.77562l0.15811,-0.04682c1.63755,-1.69206 4.6745,-5.40829 7.28339,-5.18235c0.8134,0.07045 2.66566,1.94739 3.48729,2.49025c1.73195,1.14431 3.69545,2.06033 5.50761,3.07403c2.29772,1.28857 5.10915,2.08865 7.28189,3.54554c3.20717,2.1505 5.27418,4.823 9.0723,6.04142c0.8772,0.2814 2.9678,1.12434 4.17829,1.16048c2.15476,0.06432 4.20525,-2.14664 6.41049,-0.52485c1.09402,0.80458 2.58729,6.86335 1.78741,8.05999c-1.17027,1.75074 -6.98015,1.11316 -8.84464,1.31843c-9.52668,-0.29691 -19.38011,-1.92988 -27.29986,-7.72735c-3.28587,-2.40535 -6.08632,-5.77481 -9.3045,-8.35162c0,0 -1.12066,-0.89732 -0.51919,-2.08153z" fill="url(#color-33)" stroke="none" stroke-width="0.5" stroke-linecap="butt"/></g><path d="M215.42917,180.67989c-0.055,-0.49697 0.44196,-0.55197 0.44196,-0.55197l0.22087,-0.02445c0.7451,-0.08247 2.45068,-0.59254 3.1295,0.06736c0.08504,0.06275 0.1501,0.15215 0.18186,0.25753c0.00164,0.00354 0.00327,0.00709 0.00488,0.01067c0.26754,0.59488 -0.55772,1.65966 -0.95465,2.16955c1.19248,-0.33112 2.67534,-0.2776 3.83953,-0.39633c0.02264,-0.00276 0.04531,-0.0054 0.06802,-0.00791l0.55219,-0.06112c0.27446,-0.03038 0.52159,0.1675 0.55197,0.44196c0.01258,0.11369 -0.014,0.22268 -0.06896,0.31353l-0.27985,0.47406l-0.02574,-0.01519c-0.1589,0.4066 -0.3727,0.74461 -0.78319,1.15911l-0.24698,0.42622c0,0 -0.25418,0.43057 -0.68475,0.1764c-0.02288,-0.0135 -0.04383,-0.02752 -0.06298,-0.04193c-0.04045,-0.00765 -0.08343,-0.02065 -0.12898,-0.04008v0.00001c-0.45989,-0.19622 -0.26367,-0.65611 -0.26367,-0.65611l0.24637,-0.55111c0.1609,-0.15568 0.32779,-0.31236 0.50418,-0.45566c-1.53874,0.40322 -4.34897,1.27666 -4.83072,0.50042c-0.25936,-0.4179 0.12525,-0.95972 0.21594,-1.45796c-0.01843,-0.01172 -0.03687,-0.01993 -0.055,-0.02532c0.02518,-0.052 0.05258,-0.10405 0.08191,-0.1559c0.01986,-0.08408 0.07231,-0.23112 0.20544,-0.31955c0.12379,-0.17223 0.26249,-0.33606 0.40319,-0.48137c-0.58628,0.021 -1.16734,-0.01283 -1.76444,-0.03175c0,0 -0.49974,-0.01583 -0.48392,-0.51558c0.00104,-0.03287 0.00418,-0.06352 0.00913,-0.09207c-0.01053,-0.03472 -0.01844,-0.07308 -0.02313,-0.11547z" fill="#000000" stroke="none" stroke-width="0.5" stroke-linecap="butt"/></g><g><g stroke="#000000" stroke-width="2" stroke-linecap="round"><path d="M218.70647,206.24238c1.46176,-0.41806 2.82037,1.94876 4.26845,1.87913c2.16124,-0.10391 1.7986,-1.44637 3.99135,-0.89348c4.09342,1.03212 9.25865,-0.88737 9.25865,-0.88737c0,0 2.03161,-2.18087 3.38699,-2.72341c1.30972,-0.52427 4.61301,-0.47888 4.61301,-0.47888c0,0 -0.58638,3.1253 -0.62864,4.52354c-0.04104,1.35812 0.37864,3.74904 0.37864,3.74904l6,1.06743l-2.5,4.80343l4.75,0.26686c0,0 -1.34515,3.4382 -2.45944,4.41524c-1.21098,1.06181 -4.54056,1.72248 -4.54056,1.72248c0,0 -4.8207,0.93962 -12.29077,1.63793c-2.17529,0.20335 -4.92011,0.61623 -7.80032,1.09902c-6.78085,1.13663 -14.31208,2.66074 -16.92827,2.75034c-8.01163,0.27439 -9.73064,-0.68614 -9.73064,-0.68614l3.95,-5.07029c0,0 -2.79622,-1.96728 -5.75,-3.73601c-2.95378,-1.76873 -3.75,-5.33715 -3.75,-5.33715c0,0 3.69389,1.35756 5.17482,1.59708c1.21688,0.19681 3.07518,-0.26279 3.07518,-0.26279c0,0 0.68937,-0.82272 1.24709,-1.74137c0.25427,-0.41883 0.48117,-0.85759 0.60291,-1.24743c0.43857,-1.40442 0.85,-5.21692 0.85,-5.21692l5.6,1.20229c0,0 4.43892,-1.06188 9.23155,-2.43257z" fill="url(#color-34)"/><path d="M247.77493,220.78749c0,0 0.65384,2.65492 0.83687,5.80524c0.1357,2.33569 -0.25757,4.76357 0.05089,7.52958c0.51479,4.61622 1.61001,8.86205 1.79796,11.24898c0.24428,3.10244 -0.18573,7.1662 -0.18573,7.1662c0,0 -4.41603,-1.93221 -6.27536,-2.90614c-1.6023,-0.8393 -4.22464,-2.59386 -4.22464,-2.59386c0,0 -1.70231,2.53366 -2.69255,3.56516c-1.00939,1.05144 -3.30745,2.68484 -3.30745,2.68484c0,0 -2.39843,-4.75462 -3.38456,-8.10748c-1.61118,-5.47806 -2.86544,-21.64252 -2.86544,-21.64252" fill="url(#color-35)"/></g><g stroke="none" stroke-width="0.5" stroke-linecap="butt"><path d="M203.27233,227.61769c-0.36601,-0.30683 -0.06234,-0.67546 -0.06234,-0.67546l0.36696,-0.42324c0.81623,-4.70508 1.56541,-9.32499 3.2496,-13.75435c0,0 0.17235,-0.44674 0.6156,-0.27223c0.44326,0.17451 0.27091,0.62125 0.27091,0.62125c-1.75587,4.47283 -2.20813,9.12164 -3.27911,13.82281l-0.49195,0.61941c0,0 -0.30367,0.36863 -0.66968,0.06181z" fill="#e50000"/><path d="M207.60862,224.25066c-0.47354,0.0437 -0.51762,-0.43392 -0.51762,-0.43392l-0.04154,-0.58853c1.23342,-3.36444 1.81479,-7.01036 2.87954,-10.45583c0,0 0.14144,-0.45769 0.5955,-0.31433c0.45406,0.14336 0.31262,0.60105 0.31262,0.60105c-1.03835,3.36002 -1.5129,7.07825 -2.84568,10.30352l0.04662,0.36672c0,0 0.04408,0.47762 -0.42946,0.52132z" fill="#ce0000"/><path d="M212.61838,222.68384c-0.36601,-0.30683 -0.06234,-0.67546 -0.06234,-0.67546l0.11587,-0.05579c0.70077,-3.23637 0.97895,-6.5747 1.72454,-9.80042c0,0 0.10793,-0.46693 0.5711,-0.35736c0.46318,0.10958 0.35525,0.57651 0.35525,0.57651c-0.7445,3.22096 -1.03535,6.55027 -1.72115,9.78517l-0.31359,0.46554c0,0 -0.30367,0.36863 -0.66968,0.06181z" fill="#ce0000"/><path d="M215.38671,223.26889c-0.47354,0.0437 -0.51762,-0.43392 -0.51762,-0.43392l-0.04408,-0.47762c-0.27554,-2.98551 1.64167,-5.97812 1.33747,-8.79385c0,0 -0.04408,-0.47762 0.42946,-0.52132c0.47354,-0.0437 0.51762,0.43392 0.51762,0.43392c0.23238,2.89386 -1.61551,5.78118 -1.33747,8.79385l0.04408,0.47762c0,0 0.04408,0.47762 -0.42946,0.52132z" fill="#e50000"/><path d="M218.69187,223.80922c-0.36601,-0.30683 -0.06234,-0.67546 -0.06234,-0.67546l0.1062,0.07712c-0.2136,-3.5093 1.48515,-7.0514 1.65626,-10.56446c0,0 0.02333,-0.479 0.49834,-0.45472c0.47501,0.02428 0.45168,0.50328 0.45168,0.50328c-0.16815,3.4523 -1.90312,7.01691 -1.65719,10.45399l-0.32326,0.59844c0,0 -0.30367,0.36863 -0.66968,0.06181z" fill="#ce0000"/><path d="M224.76047,221.22262c-0.47354,0.0437 -0.51762,-0.43392 -0.51762,-0.43392l-0.04327,-0.57455c0.754,-2.44046 1.21611,-4.9403 1.68498,-7.4534c0.21252,-1.13913 0.08538,-2.20406 0.81081,-3.13618c0,0 0.30367,-0.36863 0.66968,-0.06181c0.36601,0.30683 0.06234,0.67546 0.06234,0.67546c-0.57582,0.64075 -0.44862,1.84261 -0.60798,2.70091c-0.46053,2.48027 -0.87518,4.98904 -1.67437,7.38146l0.04489,0.3807c0,0 0.04408,0.47762 -0.42946,0.52132z" fill="#e50000"/><path d="M229.29677,220.52944c-0.45662,-0.1348 -0.32367,-0.59508 -0.32367,-0.59508l0.20992,-0.71992c0.34209,-3.31113 1.64501,-6.48999 2.14364,-9.7935c0,0 0.07209,-0.47396 0.54217,-0.40052c0.47009,0.07344 0.398,0.5474 0.398,0.5474c-0.50776,3.31498 -1.80205,6.51003 -2.15049,9.83298l-0.23001,0.80317c0,0 -0.13295,0.46028 -0.58957,0.32548z" fill="#ce0000"/><path d="M235.04661,221.50227c-0.17235,0.44674 -0.6156,0.27223 -0.6156,0.27223l-0.72495,-0.38577c-0.06566,-3.75452 -0.05857,-8.35019 0.77476,-12.00338c0,0 0.10793,-0.46693 0.5711,-0.35736c0.46318,0.10958 0.35525,0.57651 0.35525,0.57651c-0.85087,3.62723 0.04765,7.66723 -0.89768,11.27207l0.2662,0.00445c0,0 0.44326,0.17451 0.27091,0.62125z" fill="#e50000"/><path d="M238.97892,215.80806c-0.47369,-0.04354 -0.43126,-0.52117 -0.43126,-0.52117l0.06345,-0.5167c0.67757,-1.79183 0.86068,-5.23151 0.65203,-7.16911c0,0 -0.04408,-0.47762 0.42946,-0.52132c0.47354,-0.0437 0.51762,0.43392 0.51762,0.43392c0.17378,2.14084 0.02273,5.6291 -0.70934,7.597l-0.00584,0.2633c0,0 -0.04243,0.47764 -0.51611,0.4341z" fill="#ce0000"/><path d="M242.74919,216.91313c-0.47354,0.0437 -0.51762,-0.43392 -0.51762,-0.43392l-0.02204,-0.23881c-0.09357,-1.32572 -0.00894,-2.68413 -0.13791,-4.08163c0,0 -0.04408,-0.47762 0.42946,-0.52132c0.47354,-0.0437 0.51762,0.43392 0.51762,0.43392c0.12327,1.33563 -0.02035,2.83672 0.13791,4.08163l0.02204,0.23881c0,0 0.04408,0.47762 -0.42946,0.52132z" fill="#e50000"/><path d="M231.49227,232.72918c-0.44518,-0.16944 -0.27787,-0.61813 -0.27787,-0.61813l0.1822,-0.48131c0.46466,-3.11153 0.57329,-6.33613 0.28437,-9.46671c0,0 -0.04408,-0.47762 0.42946,-0.52132c0.47354,-0.0437 0.51762,0.43392 0.51762,0.43392c0.29907,3.24048 0.18603,6.58024 -0.31123,9.79831l-0.21205,0.57599c0,0 -0.16731,0.44869 -0.61249,0.27926z" fill="#ce0000"/><path d="M234.90409,235.2856c0.03084,0.01719 0.06233,0.03883 0.09428,0.06561c0.36601,0.30683 0.06234,0.67546 0.06234,0.67546l-1.05428,-0.00246c-0.37651,-4.22356 0.88766,-8.51366 0.48925,-12.80993c0,0 -0.04408,-0.47762 0.42946,-0.52132c0.47354,-0.0437 0.51762,0.43392 0.51762,0.43392c0.37355,4.06616 -0.76474,8.15987 -0.53867,12.15872z" fill="#e50000"/><path d="M236.09662,247.05495c0.07568,0.06437 0.13703,0.16523 0.15159,0.32292c0.04408,0.47762 -0.42946,0.52132 -0.42946,0.52132l-0.74402,-0.56535c0.45028,-1.88209 0.13151,-4.24025 0.22737,-6.20843c0.26907,-5.51079 1.38369,-10.9324 1.24014,-16.44614c0,0 -0.01248,-0.47947 0.46294,-0.49131c0.47542,-0.01184 0.4879,0.46764 0.4879,0.46764c0.14424,5.53999 -0.97198,10.98236 -1.24095,16.51837c-0.09135,1.87549 0.14527,4.02 -0.1555,5.88097z" fill="#ce0000"/><path d="M239.96148,239.07783c0.04073,0.0603 0.07048,0.13935 0.08004,0.24291c0.04408,0.47762 -0.42946,0.52132 -0.42946,0.52132l-0.71153,-0.65989c0.65869,-1.3819 0.49187,-3.24721 0.70356,-4.7543c0.43444,-3.09307 0.72447,-6.21617 1.29613,-9.28772c0,0 0.08771,-0.47125 0.55513,-0.38206c0.46743,0.08919 0.37972,0.56044 0.37972,0.56044c-0.56955,3.06021 -0.85965,6.17299 -1.29065,9.25523c-0.20384,1.45773 -0.11768,3.09312 -0.58294,4.50406z" fill="#ce0000"/><path d="M242.7398,242.68439c-0.47354,0.0437 -0.51762,-0.43392 -0.51762,-0.43392l-0.04596,-0.50943c0.1618,-4.20341 -0.02459,-8.41882 0.2756,-12.59657c0,0 0.03437,-0.47831 0.50871,-0.4429c0.47434,0.03541 0.43997,0.51372 0.43997,0.51372c-0.29808,4.14846 -0.10166,8.32794 -0.27345,12.50196l0.0422,0.44581c0,0 0.04408,0.47762 -0.42946,0.52132z" fill="#e50000"/><path d="M244.72648,225.40106c0,0 -0.04408,-0.47762 0.42946,-0.52132c0.47354,-0.0437 0.51762,0.43392 0.51762,0.43392c0.27917,3.02494 0.55835,6.04987 0.83752,9.07481l0.02204,0.23881c0,0 0.04408,0.47762 -0.42946,0.52132c0.14408,1.56116 -0.20196,3.03179 -0.05477,4.58111l0.02204,0.23881c0,0 0.04408,0.47762 -0.42946,0.52132c-0.47354,0.0437 -0.51762,-0.43392 -0.51762,-0.43392l-0.02204,-0.23881c-0.13993,-1.55576 0.19859,-3.02282 0.05477,-4.58111c0,0 -0.04408,-0.47762 0.42946,-0.52132c-0.27917,-3.02494 -0.58039,-6.28868 -0.85956,-9.31362z" fill="#ce0000"/><path d="M247.41472,244.17969c-0.47354,0.0437 -0.51762,-0.43392 -0.51762,-0.43392l-0.02204,-0.23881c-0.12418,-1.8846 0.6034,-3.81119 0.41811,-5.81886c0,0 -0.04408,-0.47762 0.42946,-0.52132c0.47354,-0.0437 0.51762,0.43392 0.51762,0.43392c0.17657,1.91317 -0.65543,4.0881 -0.41811,5.81886l0.02204,0.23881c0,0 0.04408,0.47762 -0.42946,0.52132z" fill="#e50000"/><path d="M239.80912,221.27883c-0.47354,0.0437 -0.51762,-0.43392 -0.51762,-0.43392c-0.01469,-0.15921 -0.07347,-0.79604 -0.08816,-0.95524c0,0 -0.0037,-0.04004 0.00255,-0.09799c-0.11346,-0.25294 0.08294,-0.49135 0.08294,-0.49135l0.1072,0.08987c-0.02872,-0.55211 0.13901,-1.1488 0.47086,-1.58829c0,0 0.30367,-0.36863 0.66968,-0.06181c0.36601,0.30683 0.06234,0.67546 0.06234,0.67546c-0.21186,0.22167 -0.30474,0.58301 -0.25581,0.88723l-0.21301,0.404c0.01664,0.05563 0.02032,0.09548 0.02032,0.09548c0.01469,0.15921 0.02939,0.31841 0.04408,0.47762l0.04408,0.47762c0,0 0.04408,0.47762 -0.42946,0.52132z" fill="#e50000"/><path d="M243.49856,225.03269c-0.47354,0.0437 -0.51762,-0.43392 -0.51762,-0.43392c-0.17632,-1.91049 -0.39672,-4.29859 -0.57304,-6.20908c0,0 -0.04408,-0.47762 0.42946,-0.52132c0.47354,-0.0437 0.51762,0.43392 0.51762,0.43392c0.17632,1.91049 0.35264,3.82097 0.52896,5.73146l0.04408,0.47762c0,0 0.04408,0.47762 -0.42946,0.52132z" fill="#ce0000"/><path d="M209.25277,224.07584c-0.47354,0.0437 -0.51762,-0.43392 -0.51762,-0.43392l0.03304,-0.51109c1.26437,-2.35273 2.0016,-5.308 2.56475,-7.82887c0,0 0.10793,-0.46693 0.5711,-0.35736c0.46318,0.10958 0.35525,0.57651 0.35525,0.57651c-0.62435,2.59423 -1.35172,5.63074 -2.65419,8.06686l0.07712,-0.03347c0,0 0.04408,0.47762 -0.42946,0.52132z" fill="#e50000"/><path d="M217.80538,212.29481c-0.47354,0.0437 -0.51762,-0.43392 -0.51762,-0.43392l-0.04154,-0.58853c0.21334,-0.55302 0.48055,-1.27792 1.04906,-1.43122c0,0 0.47354,-0.0437 0.51762,0.43392c0.04408,0.47762 -0.42946,0.52132 -0.42946,0.52132c-0.18707,-0.15682 -0.01976,0.15553 -0.19523,0.61038l0.04662,0.36672c0,0 0.04408,0.47762 -0.42946,0.52132z" fill="#ce0000"/></g></g><g><g><g><g><g><path d="M224.70196,178.2049c-16.33659,-7.84341 -23.3907,-20.84826 -20.43781,-25.28444c2.9529,-4.43619 18.13675,-2.3754 34.47335,5.46802c16.33659,7.84342 25.90688,19.81829 22.95398,24.25448c-2.95291,4.43619 -20.65292,3.40535 -36.98951,-4.43806z" fill="url(#color-36)" stroke="#000000" stroke-width="2" stroke-linecap="butt"/><path d="M214.5863,154.95479l31.69026,-39.57825l11.13298,-1.25705l-3.32284,61.63779c0,0 -4.18591,2.1698 -25.36176,-8.44157c-17.55553,-8.79721 -14.13865,-12.36091 -14.13865,-12.36091z" fill="#541882" stroke="#000000" stroke-width="2" stroke-linecap="round"/><path d="M238.06956,150.83751c-0.28884,-0.99226 -0.47581,-2.00196 -0.57916,-2.58007c-0.30082,-1.68268 -0.22703,-2.9639 0.21603,-4.58347c2.79576,-5.5265 11.18858,-10.86836 15.37017,-3.51398c1.13989,2.00478 1.04236,4.76481 1.29121,7.01317c0.39393,3.89098 -1.61584,6.23037 -4.4094,7.2712l-2.23675,0.54371c-2.37504,0.30942 -4.97242,-0.11258 -7.05362,-1.15066c-0.06707,-0.00879 -0.13879,-0.02621 -0.2154,-0.05393c-0.12087,-0.04374 -0.21779,-0.10009 -0.29523,-0.16429c-0.17565,0.04329 -0.33792,0.04424 -0.4778,-0.01368c-0.4041,-0.16736 -0.74634,-0.62334 -1.03309,-1.21126l-0.45897,-0.59015c0,0 -0.36094,-0.48453 -0.11798,-0.96658zM249.72741,152.65927c1.96455,-0.8219 3.29516,-2.50286 2.95054,-5.29907c-0.06577,-0.59421 -0.09963,-1.24298 -0.14182,-1.90773c-1.05564,0.96702 -2.69966,2.0019 -3.38931,2.44423c0.09207,0.83413 0.18317,1.66851 0.27553,2.50296c0.08344,0.75841 0.19662,1.50799 0.30506,2.25963zM244.63259,148.68705c0.91528,-0.53314 1.82772,-1.07697 2.71995,-1.64866c-0.09455,-0.87995 -0.19188,-1.75961 -0.29767,-2.63798c-0.84304,-0.04805 -1.68555,-0.10623 -2.5258,-0.15734c-0.36618,1.10236 -0.74496,2.20218 -1.12358,3.30244c0.37937,0.37448 0.79692,0.75313 1.2271,1.14154zM252.23448,142.83181c-0.13337,-0.63789 -0.32762,-1.24116 -0.62257,-1.77158c-0.96966,-1.74382 -2.25368,-2.53874 -3.63663,-2.68521c0.1412,0.61338 0.15404,1.30442 0.23396,1.86347c0.10935,0.76493 0.21212,1.53049 0.31006,2.29656c1.19786,0.07283 2.39212,0.14467 3.57255,0.17518c0.04397,0.04227 0.09189,0.08261 0.14262,0.12158zM239.07265,145.55742c-0.16231,1.71502 0.1271,3.93033 0.70136,5.50589l0.12306,0.17713c0.11196,0.09627 0.22996,0.18969 0.3535,0.28015c0.35608,-1.14987 0.71977,-2.31041 1.09417,-3.47133c-0.44323,-0.50258 -0.87816,-0.9954 -1.3038,-1.47033c-0.15937,-0.17782 -0.55722,-0.56921 -0.96829,-1.02152zM243.30316,142.33521c0.31229,-0.84683 0.63337,-1.68442 0.96457,-2.50847c0.03648,-0.09075 0.14233,-0.35937 0.28595,-0.70064c-1.53113,0.76766 -2.97335,2.01971 -4.04634,3.36525c0.47478,-0.05924 0.89718,-0.08575 1.14613,-0.10105c0.54675,-0.0336 1.09699,-0.05061 1.64969,-0.05509zM241.95613,152.45126c1.27508,0.51813 2.77581,0.81547 4.24562,0.82889c-0.75183,-0.72759 -1.49231,-1.49871 -2.21775,-2.28374c-0.4742,0.29593 -0.93956,0.60246 -1.38996,0.92664c-0.15584,0.11217 -0.37911,0.30785 -0.63792,0.52821zM247.55042,148.90038c-0.54371,0.3244 -1.09528,0.63998 -1.64587,0.95702c0.77103,0.73925 1.50264,1.52727 2.04812,2.39615c-0.08,-0.55368 -0.15794,-1.10782 -0.22016,-1.66687c-0.06217,-0.56174 -0.12237,-1.12393 -0.18208,-1.68629zM245.23795,142.36386c0.52029,0.01784 1.04168,0.04245 1.56331,0.07054c-0.0079,-0.05689 -0.01585,-0.11376 -0.02385,-0.17062c-0.08492,-0.60327 -0.19105,-1.2039 -0.25465,-1.80982c-0.05091,-0.485 -0.03694,-0.97514 -0.0886,-1.46007c-0.01457,-0.13674 -0.142,-0.53049 -0.10926,-0.39709c0.22463,0.91506 -0.52602,2.51007 -1.08694,3.76706zM241.98116,146.10985c0.2077,-0.62113 0.41898,-1.24071 0.6343,-1.85718c-0.69201,0.09052 -1.6478,0.22435 -2.31337,0.16066c0.36272,0.31311 0.75705,0.69548 0.96069,0.92289c0.23503,0.26248 0.47507,0.51977 0.71838,0.77363zM250.94473,144.48744c-0.7276,0.02073 -1.45679,0.014 -2.18646,-0.00901c0.05921,0.4991 0.11699,0.99837 0.17381,1.49777c0.07794,-0.05529 0.15564,-0.11089 0.23307,-0.16681c0.41538,-0.30001 1.19503,-0.9403 1.77958,-1.32195zM242.61692,149.85198c0.07161,-0.04145 0.14328,-0.08288 0.21501,-0.12431c-0.04188,-0.0468 -0.0837,-0.09358 -0.12546,-0.14036c-0.0299,0.0882 -0.05975,0.17642 -0.08955,0.26466z" fill="#ff5ebb" stroke="none" stroke-width="0.5" stroke-linecap="butt"/><path d="M240.81838,112.79456c-1.25152,-1.76692 -2.03494,-3.72453 -2.37542,-5.72534c4.59986,3.25261 9.33275,2.60322 14.1915,-0.83828c4.64886,-3.29283 8.21958,-8.13057 7.03041,-13.36022c1.51562,0.95099 2.87267,2.21059 3.97136,3.76174c4.46305,6.30097 2.9731,15.02693 -3.32787,19.48997c-6.30097,4.46305 -15.02693,2.97311 -19.48997,-3.32786z" data-paper-data="{&quot;index&quot;:null}" fill="url(#color-37)" stroke="#000000" stroke-width="2" stroke-linecap="butt"/></g><g fill="#561d82" stroke="none" stroke-width="0.5" stroke-linecap="butt"><path d="M229.6875,156.42166c0.00322,0.02969 0.00645,0.05938 0.00973,0.08904c0.14378,1.45883 -0.88064,2.86788 -2.21073,3.35008c-0.65749,0.53634 -1.52309,0.72576 -2.51869,0.7181c-0.47294,0.15742 -0.94024,0.2303 -1.32086,0.14734c-0.16857,0.00025 -0.33939,-0.01314 -0.51212,-0.04166c-0.00353,-0.00066 -0.00707,-0.00132 -0.0106,-0.00202c-0.24601,-0.01676 -0.48927,-0.05909 -0.72644,-0.13023c-1.15694,-0.58219 -1.83151,-1.3739 -2.17121,-2.39245c-0.00355,-0.00551 -0.00708,-0.01104 -0.01063,-0.01657c-0.79657,-0.65687 -0.97717,-1.49498 -0.91003,-2.3739c-0.02483,-0.08004 -0.04821,-0.15919 -0.07012,-0.23722c-0.07202,-0.60284 0.10423,-1.07217 0.40897,-1.47131c0.06463,-0.24178 0.13011,-0.47978 0.18862,-0.71099c0.34557,-1.36162 2.22465,-3.13588 3.49525,-3.60686c0.51732,-0.10443 1.01303,-0.04662 1.48888,0.11104c0.25902,0.04691 0.54597,0.11393 0.86857,0.19829c1.22901,0.68118 3.16582,2.07679 3.5527,3.50683c0.04685,0.18238 0.08243,0.3604 0.10788,0.53484c0.03946,0.1523 0.07351,0.30704 0.10343,0.46363c0.0515,0.17195 0.09676,0.35285 0.13565,0.54383c0.09367,0.45999 0.12814,0.89925 0.10174,1.32015zM228.60306,153.10024c-0.19486,-0.29826 -0.44149,-0.57329 -0.75687,-0.81733c-0.89206,-0.62845 -1.90831,-1.59432 -3.02149,-1.98106c-0.98095,-0.18353 -1.50111,-0.08017 -2.08071,0.50565c0.40853,-0.03602 0.85276,0.01447 1.28959,0.10695c0.80904,-0.50881 1.56555,-0.13684 2.50125,0.47632c0.84461,0.5538 1.54035,1.06478 2.06824,1.70946zM223.77741,151.10401c-0.44083,-0.08402 -0.87994,-0.11854 -1.2568,-0.05123c-0.20305,0.23936 -0.42028,0.53624 -0.67158,0.89811c-0.12767,0.18379 -0.2558,0.38394 -0.38106,0.5965c-0.01216,0.07637 -0.02365,0.15269 -0.03451,0.22899c0.28436,-0.21942 0.54868,-0.44837 0.75726,-0.70572c0.38482,-0.46164 1.0453,-0.41978 1.35234,-0.74335c0.07892,-0.08317 0.15697,-0.15742 0.23435,-0.2233zM228.01649,159.74447c0.12034,-0.07523 0.23642,-0.1588 0.34703,-0.24968c-0.03583,-0.00902 -0.07943,-0.03461 -0.08721,-0.10492c-0.01359,-0.12275 0.10916,-0.13634 0.10916,-0.13634l0.00374,0.03095c0.67803,-0.74864 1.034,-1.55658 1.095,-2.455c-0.0326,-0.30464 -0.06117,-0.61134 -0.09546,-0.91566c-0.13696,0.9651 -0.52029,1.88136 -0.89686,2.91929c-0.12868,0.35463 -0.28824,0.65633 -0.4754,0.91137zM222.09905,151.18732c-0.17442,0.08696 -0.32257,0.2112 -0.43439,0.38143c-0.02662,0.10787 -0.05142,0.21552 -0.07455,0.32298c0.01867,-0.02756 0.03736,-0.0548 0.05605,-0.08172c0.16103,-0.23189 0.31054,-0.43893 0.4529,-0.62268zM220.64561,153.62556c-0.28381,0.22282 -0.54621,0.45825 -0.74922,0.72148c-0.14238,0.52453 -0.27863,1.06343 -0.32101,1.58669c0.11057,0.35001 0.2494,0.71703 0.41597,1.08136c-0.01347,-0.17318 -0.02124,-0.35119 -0.02377,-0.53411c-0.00901,-0.89751 0.27285,-1.91763 0.67802,-2.85544zM226.49711,159.71859c0.25434,-0.17966 0.4518,-0.35055 0.55423,-0.48013c0.12512,-0.17239 0.23752,-0.33717 0.3377,-0.49603c-0.04429,0.05394 -0.08955,0.10779 -0.13573,0.16144c-0.04936,0.08233 -0.09585,0.16451 -0.13881,0.2466c-0.18493,0.19966 -0.39242,0.39065 -0.61738,0.56811zM229.16796,154.7531c-0.00307,-0.05682 -0.00722,-0.11399 -0.01252,-0.17152c-0.48727,-1.3755 -1.42943,-2.11542 -2.75599,-2.98421c-0.82324,-0.53947 -1.32151,-0.80636 -1.92795,-0.57668c0.57457,0.15579 1.10943,0.36046 1.49951,0.50558c1.32993,0.84391 2.37906,1.97715 3.19696,3.22683zM221.12842,153.26575c-0.02461,0.01776 -0.04922,0.03556 -0.0738,0.05339c-0.49034,1.01108 -0.8579,2.1675 -0.84005,3.15845c0.00587,0.42584 0.04018,0.82274 0.10971,1.19199c0.31009,0.54884 0.68607,1.06259 1.1259,1.46781c-0.41394,-0.90989 -0.62213,-1.9647 -0.56573,-2.62934c0.09771,-1.11449 0.12596,-2.17859 0.24396,-3.24231zM228.73627,156.28217c0.21122,-0.42137 0.33702,-0.85102 0.2991,-1.29088c-0.81857,-1.24097 -1.84199,-2.38664 -3.17421,-3.24379c-0.37685,-0.13772 -1.0272,-0.39334 -1.71513,-0.56264c-0.13704,0.08506 -0.28206,0.19343 -0.43898,0.32716c-0.42239,0.35996 -0.90757,0.2141 -1.32658,0.71678c-0.01819,0.02132 -0.03684,0.04249 -0.05594,0.06351c0.46293,-0.14926 1.0063,-0.05075 1.47995,-0.04386c1.5102,0.02675 3.49394,0.44576 4.30595,1.83355c0.51449,0.88121 0.7031,1.55937 0.62585,2.20015zM221.73758,155.36748c-0.04519,0.46162 -0.02294,0.92873 0.04143,1.34135c0.10037,0.64849 0.29398,1.17356 0.57006,1.63243c-0.20375,-0.95787 -0.34063,-1.92503 -0.58914,-2.88453c-0.00729,-0.02837 -0.01476,-0.05816 -0.02236,-0.08924zM226.50545,160.01798c0.10292,-0.01889 0.20406,-0.03463 0.30285,-0.04556c0.19685,-0.02179 0.39215,-0.06766 0.58235,-0.13449c0.35494,-0.30307 0.64172,-0.72198 0.84706,-1.28785c0.29536,-0.8139 0.59841,-1.54744 0.77706,-2.2901c-0.15684,0.34011 -0.3689,0.67374 -0.59983,1.00255c-0.07638,0.14753 -0.16502,0.29754 -0.26519,0.45202c-0.15705,0.51667 -0.45058,1.05223 -0.902,1.67373c-0.1476,0.18164 -0.41254,0.40695 -0.74228,0.62972zM228.28356,156.98155c0.37765,-0.83175 0.30066,-1.5981 -0.38646,-2.77499c-0.3424,-0.58781 -0.92206,-0.99042 -1.58502,-1.25668c0.55901,0.2961 1.01451,0.81047 1.42457,1.62067c0.38963,0.95078 0.59131,1.69364 0.5469,2.411zM225.25808,152.64336c-0.5014,-0.09948 -1.00538,-0.14299 -1.45722,-0.14791c-0.43717,-0.00636 -1.35681,-0.20685 -1.69563,0.181c-0.31013,0.35501 -0.36597,0.93255 -0.32216,1.50001c0.3165,-0.74548 0.89843,-1.33015 1.85982,-1.46898c0.61286,-0.08533 1.14526,-0.11474 1.61519,-0.06412zM221.60526,154.71354c-0.09806,-0.6154 -0.13776,-1.35955 0.09286,-1.86523c-0.09889,0.07574 -0.2008,0.15077 -0.30409,0.22574c-0.13954,1.13544 -0.16016,2.26894 -0.26352,3.4555c-0.06266,0.69467 0.22972,2.00999 0.7722,2.96842c0.08784,0.05954 0.17778,0.11465 0.26982,0.16492c0.17073,-0.01854 0.3527,0.01014 0.54088,0.06457c-0.08338,-0.25354 -0.15571,-0.50835 -0.22042,-0.76409c-0.48267,-0.59955 -0.81383,-1.28472 -0.95809,-2.21677c-0.09743,-0.63497 -0.09559,-1.36667 0.07035,-2.03306zM224.0277,160.24282c0.12191,0.03888 0.2417,0.06835 0.35804,0.0828c0.18832,0.02339 0.38392,0.01932 0.58302,-0.00142c0.34507,-0.13775 0.67711,-0.31376 0.98464,-0.51629c0.40618,-0.30973 0.77452,-0.67365 1.09438,-1.0436c0.25314,-0.42609 0.59157,-0.85714 0.91765,-1.29559c0.20578,-0.84443 0.01504,-1.64971 -0.45343,-2.79548c-0.86973,-1.71436 -1.90684,-1.98984 -3.83504,-1.72112c-1.05368,0.14056 -1.59624,0.88457 -1.82548,1.76318c0.04354,0.25387 0.09821,0.48867 0.14764,0.67978c0.29644,1.15652 0.43198,2.32266 0.7213,3.47004c0.35027,0.42678 0.78325,0.80775 1.28723,1.20513c0,0 0.09571,0.07664 0.02003,0.17255zM223.20049,160.31664c0.20685,0.05286 0.42508,0.09534 0.65652,0.12858c-0.24279,-0.0857 -0.48785,-0.19877 -0.72995,-0.2995c0.01082,0.02723 0.0218,0.05445 0.03294,0.08165c0.0122,0.03143 0.02571,0.06115 0.04049,0.08927zM220.02788,153.86456c0.24246,-0.2284 0.5202,-0.43719 0.80209,-0.64285c0.12912,-0.2684 0.26686,-0.52703 0.40891,-0.77062c0.04578,-0.28043 0.10056,-0.5617 0.16724,-0.84474c-0.62945,0.63569 -1.15082,1.37076 -1.3113,2.00311c-0.02145,0.08428 -0.04389,0.16937 -0.06693,0.25511zM220.1153,157.87355c-0.00827,-0.03741 -0.01615,-0.07509 -0.02368,-0.11304c-0.19005,-0.33995 -0.35553,-0.69231 -0.49599,-1.04079c0.06293,0.41116 0.21984,0.80135 0.51967,1.15384zM222.17728,159.9205c0.22389,0.1228 0.46145,0.22445 0.71677,0.30749c-0.02658,-0.06727 -0.05221,-0.13465 -0.07696,-0.20213c-0.22363,-0.07761 -0.44265,-0.12941 -0.65275,-0.12268c0.0043,0.0058 0.00862,0.01157 0.01294,0.01732zM225.65802,160.5042c0.40622,-0.04072 0.78057,-0.12855 1.1164,-0.27901c-0.29649,0.03776 -0.60878,0.11183 -0.92527,0.18314c-0.06292,0.03282 -0.1267,0.06484 -0.19112,0.09587zM222.30052,160.40906c-0.08784,-0.08395 -0.17219,-0.17662 -0.25292,-0.27653c-0.34089,-0.18646 -0.65298,-0.41882 -0.94507,-0.70454c0.30375,0.3736 0.69723,0.69953 1.19799,0.98107zM223.12514,160.62625c-0.02726,-0.02958 -0.05304,-0.06135 -0.07725,-0.09538c-0.1345,-0.03688 -0.26484,-0.07818 -0.39137,-0.12418c0.1478,0.10696 0.3043,0.18291 0.46862,0.21956zM222.1598,150.93329c0.06389,-0.02373 0.12957,-0.04407 0.1968,-0.06125c0.08043,-0.09253 0.1593,-0.17716 0.23751,-0.25423c-0.14364,0.09568 -0.28924,0.2015 -0.43431,0.31548zM223.00837,159.82906c0.21543,0.08385 0.43536,0.18591 0.65282,0.27638c-0.29182,-0.24257 -0.55943,-0.48083 -0.79992,-0.72806c0.04527,0.15099 0.09408,0.30156 0.1471,0.45167z"/><path d="M224.21647,150.12995c0.03908,0.03263 0.07737,0.06744 0.11438,0.10329c-0.02234,-0.05747 -0.04658,-0.1133 -0.07292,-0.16716l-0.02672,0.04896c0,0 -0.00526,0.00658 -0.01475,0.0149zM224.79818,151.55524c-0.26295,-0.78594 -0.572,-1.41158 -0.79599,-0.88804c0.02746,1.22418 -0.193,2.44896 -0.0613,3.66464c-0.01309,0.15392 -0.02636,0.30792 -0.03957,0.46197c0.05576,0.50072 0.11957,1.00281 0.17513,1.50686c0.11849,1.07524 0.62107,3.63541 -0.47406,4.26446l0.02316,0.06246l-0.22899,0.08495c-0.01001,0.00398 -0.02073,0.00668 -0.03196,0.00792c-0.0678,0.0075 -0.12883,-0.04137 -0.13634,-0.10916c-0.0022,-0.01987 0.00044,-0.03915 0.00698,-0.05667l0.06658,-0.19098c0.09187,-0.43053 0.13349,-0.85637 0.17697,-1.29608c-0.0616,-1.43222 0.04913,-2.86641 0.17519,-4.28717c-0.12335,-1.1421 -0.2029,-2.27564 -0.06189,-3.41415c0.03198,-0.23955 -0.04198,-0.65555 0.01738,-0.86804c0.03325,-0.11902 0.07509,-0.208 0.1233,-0.27196c-0.00513,-0.06306 -0.01115,-0.12612 -0.01813,-0.18915c0,0 -0.01358,-0.12275 0.10917,-0.13634c0.12275,-0.01359 0.13634,0.10916 0.13634,0.10916c0.00299,0.02699 0.00581,0.05397 0.00846,0.08096c0.08657,-0.00467 0.17948,0.02593 0.27258,0.07795c0.00824,-0.01917 0.01799,-0.03135 0.01799,-0.03135l0.04643,-0.00011c-0.00645,-0.06898 0.00666,-0.13776 0.03115,-0.20438l-0.04237,-0.01563l0.0628,-0.17022c0.01508,-0.0437 0.05421,-0.07709 0.10321,-0.08251c0.0678,-0.0075 0.12883,0.04137 0.13634,0.10916l0.02477,0.22376c0.16029,0.2458 0.25988,0.55986 0.32712,0.89136c0.41309,0.65612 0.36212,1.509 0.54976,2.23642c0.36246,1.41254 0.65099,2.8 0.84204,4.23652c0.4123,0.67924 1.20826,1.99241 0.90437,2.389c-0.40598,0.5298 -1.03484,-1.43505 -1.0695,-1.70233c-0.02221,-0.20065 -0.04635,-0.40013 -0.07237,-0.59863c-0.06421,-0.10619 -0.12335,-0.20628 -0.17386,-0.2983c-0.6804,-1.46797 -0.88345,-3.3223 -1.06059,-4.92274c-0.02298,-0.20762 -0.04287,-0.4377 -0.07029,-0.67358zM226.19341,157.78549c0.00222,0.01967 0.00442,0.03935 0.0066,0.05905c0.03259,0.38177 0.31643,0.60025 0.36326,1.03668c0.01258,0.11726 0.25672,0.56089 0.25702,0.55315c0.01922,-0.49031 -0.30135,-1.10212 -0.62687,-1.64888zM223.57869,155.87131c-0.07344,1.00548 -0.11879,2.01404 -0.07376,3.02606c-0.04139,0.42937 -0.08296,0.84557 -0.16722,1.2656c0.71265,-1.09988 0.42188,-2.65591 0.27243,-4.01203c-0.01028,-0.09331 -0.02079,-0.1865 -0.03145,-0.27963zM224.97561,152.76455c0.14332,1.24756 0.33668,2.60075 0.79579,3.73979c-0.18444,-1.17588 -0.43327,-2.32614 -0.73305,-3.49443c-0.01777,-0.06958 -0.03882,-0.15248 -0.06273,-0.24537z"/><path d="M221.90158,158.7286c0.12275,-0.01359 0.13634,0.10917 0.13634,0.10917l0.00906,0.08184c-0.02982,0.03846 0.53511,-0.53985 0.70329,-0.7395c0.39969,-0.47446 0.84664,-0.89287 1.26353,-1.34396c-0.38636,-0.4201 -0.93064,-0.87093 -1.39926,-1.33465c-0.02583,0.00073 -0.11796,-0.00417 -0.12963,-0.10955c-0.00087,-0.00785 -0.00118,-0.01526 -0.001,-0.02224c-0.4761,-0.4906 -0.84387,-0.99361 -0.83072,-1.48821l-0.07209,-0.01547l0.05126,-0.23872c0.00987,-0.05187 0.05254,-0.09349 0.10777,-0.0996c0.04901,-0.00542 0.09448,0.01861 0.11876,0.05795l0.08194,0.12675c0.15145,0.05428 0.2993,0.13129 0.44403,0.22519c1.26705,-0.21598 2.48585,-0.67342 3.80981,-0.82007c0.60561,-0.06704 1.15941,-0.2926 1.7559,-0.36002l0.16367,-0.01812c0.0678,-0.0075 0.12883,0.04137 0.13634,0.10916c0.00611,0.05521 -0.02519,0.10596 -0.07363,0.12694l-0.21565,0.09943c-0.28956,0.2507 -0.60605,0.52608 -0.94054,0.79578c-0.68444,0.81662 -1.45664,1.66639 -2.20136,2.4435c0.68588,0.89437 1.25378,2.78109 2.41022,2.6531c0,0 0.12275,-0.01359 0.13634,0.10917c0.01359,0.12275 -0.10916,0.13634 -0.10916,0.13634c-1.35223,0.14967 -1.84847,-1.78517 -2.60395,-2.72554c-0.02382,0.02465 -0.0476,0.0492 -0.07133,0.07367c-0.07317,0.09028 -0.14763,0.17953 -0.22302,0.26801c0.08733,0.11979 0.16914,0.24447 0.24384,0.37526c0.45248,0.931 1.18249,1.77389 1.90554,2.51816c0.01472,-0.00933 0.03358,-0.0162 0.05767,-0.01887c0.12275,-0.01359 0.13634,0.10917 0.13634,0.10917l-0.04512,0.06177c0.00952,0.00965 0.01904,0.01928 0.02854,0.0289l-0.04129,-0.01145l-0.13485,0.18462c-0.79076,-0.80851 -1.62599,-1.7282 -2.12529,-2.75699c-0.05368,-0.09386 -0.12165,-0.18989 -0.20071,-0.28783c-0.48505,0.55344 -0.99756,1.08346 -1.4532,1.6517c-0.23271,0.29022 -0.7675,0.74518 -0.92851,0.26341l-0.00906,-0.08184c0,0 -0.01359,-0.12276 0.10916,-0.13635zM224.17594,156.22021c0.03017,-0.03116 0.06044,-0.06249 0.09082,-0.09396c-0.01679,-0.01649 -0.03373,-0.03245 -0.05083,-0.04783c-0.29426,-0.23552 -0.58223,-0.54164 -0.8753,-0.85815c-0.17084,0.01891 -0.34168,0.03782 -0.51252,0.05673c0.39317,0.37515 0.8055,0.74481 1.15364,1.17297c0.06594,-0.07524 0.13078,-0.1517 0.19418,-0.22976zM226.95572,153.11696c0,0 0.02307,-0.02881 0.05975,-0.04232c0.04648,-0.048 0.09546,-0.09522 0.14651,-0.13904c-0.05908,0.01413 -0.1181,0.02881 -0.1771,0.04371c-0.0052,0.09861 -0.11001,0.11021 -0.11001,0.11021c-1.33073,0.13896 -2.53311,1.19157 -3.91029,1.344c-0.00336,0.00037 -0.00671,0.00074 -0.01007,0.00111c0.16724,0.16993 0.33101,0.34882 0.4922,0.52539c0.19849,-0.02197 0.39097,-0.04327 0.56329,-0.06234c0.80673,-0.08276 2.18372,-0.8828 2.72235,-1.50222c0.07618,-0.09346 0.15072,-0.18635 0.22338,-0.27849zM222.33722,154.3787c-0.00713,-0.06443 0.02329,-0.09878 0.05381,-0.11688c-0.09905,-0.08529 -0.19978,-0.16542 -0.30253,-0.23854c-0.10028,0.01599 -0.20091,0.03038 -0.30197,0.0429c0.2183,0.36338 0.50349,0.68144 0.81185,0.98773c0.16957,-0.01877 0.35092,-0.03884 0.53342,-0.05904c-0.16693,-0.17928 -0.33632,-0.35735 -0.51025,-0.52339l-0.14799,0.01638c0,0 -0.12275,0.01359 -0.13634,-0.10916zM222.9374,154.18801c0.8922,-0.09875 1.70392,-0.5657 2.52797,-0.92594c-1.03683,0.17655 -2.01824,0.5032 -3.02616,0.69899c0.09697,0.07788 0.19258,0.16195 0.28703,0.25031c0.09014,-0.00998 0.17484,-0.01935 0.21117,-0.02337zM224.03717,155.14318c-0.12794,0.01416 -0.25589,0.02832 -0.38383,0.04248c0.24497,0.26551 0.48474,0.51405 0.7226,0.70459c0.02055,0.0186 0.04095,0.03829 0.06121,0.05896c0.4908,-0.51147 1.00221,-1.05804 1.48691,-1.60555c-0.61322,0.40847 -1.25711,0.72566 -1.8869,0.79951zM221.62103,153.75215c0.01228,0.02703 0.02495,0.0538 0.03798,0.08032c0.03427,-0.0038 0.0685,-0.00784 0.10268,-0.01209c-0.04642,-0.02447 -0.09331,-0.04726 -0.14065,-0.06823z"/></g></g><path d="M238.75085,118.50697c-4.57169,-11.46435 -0.8418,-24.87344 8.33093,-29.95004c9.17274,-5.07661 20.3148,0.10168 24.88649,11.56603c4.57169,11.46435 0.8418,24.87344 -8.33093,29.95004c-9.17274,5.07661 -20.3148,-0.10168 -24.88649,-11.56603z" fill="url(#color-38)" stroke="none" stroke-width="0" stroke-linecap="butt"/></g><path d="M248.37996,114.77905c-0.26965,0.03187 -0.47933,-0.17102 -0.65453,-0.40307c-0.2306,-0.07944 -0.44017,-0.10201 -0.66922,-0.14327c-0.03814,0.10022 -0.08754,0.18239 -0.16333,0.19875c-0.45976,0.09924 -0.67113,-0.02481 -0.74616,-0.24384c-0.11739,0.20143 -0.24074,0.38171 -0.37376,0.55967l0.00466,0.00241l-0.22812,0.44057c-0.03666,0.07341 -0.10867,0.12728 -0.19628,0.13697c-0.11691,0.01294 -0.22389,-0.05695 -0.26241,-0.16277l-0.13587,-0.34882l0.01729,-0.00673l-0.03182,-0.04858c0.01398,-0.18509 0.02797,-0.37018 0.04196,-0.55528c0,0 0.02176,-0.24906 0.27081,-0.22729c0.24906,0.02176 0.22729,0.27081 0.22729,0.27081c-0.00305,0.02988 -0.00611,0.05976 -0.00917,0.08963c0.09226,-0.17296 0.21841,-0.33159 0.33079,-0.54345l0.06603,-0.45811c0.01368,-0.11253 0.10315,-0.20506 0.2207,-0.21807c0.10988,-0.01216 0.211,0.04884 0.25474,0.14409l0.08956,0.18357l0.17601,0.14239c0.09391,0.0424 0.182,0.07581 0.2659,0.10295c0.05154,-0.20206 0.08282,-0.41696 0.45174,-0.37613c0.23458,0.02596 0.43282,0.34936 0.608,0.61996c0.14321,0.04887 0.2972,0.11792 0.47131,0.22262c0.00911,0.01088 0.01815,0.02137 0.02714,0.03149c0.12581,-0.27467 0.06869,-1.07057 0.33473,-1.17157c0.27,-0.1025 0.43292,0.54354 0.71625,0.48752c0.61051,-0.12071 1.13699,-1.6139 1.14617,-2.13451l0.01571,-0.49608c0.00194,-0.12407 0.09593,-0.23023 0.22249,-0.24424c0.12196,-0.0135 0.23311,0.06313 0.26702,0.17667l0.15109,0.47173l-0.13006,0.04166c0.17369,0.56897 0.2819,1.21607 0.52181,1.54591c0.28737,0.39509 0.24852,-1.23671 0.7361,-1.26735c0.52203,-0.03281 1.2493,1.26573 1.37409,0.75777c0.19403,-0.78979 -0.81918,-3.12739 0.88036,-2.20038c2.35377,1.60477 0.1112,-0.23343 0.52696,-1.13543c0.35051,-0.76043 2.36722,-0.14897 2.54326,-0.62286c0.21621,-0.58202 0.07762,-1.79571 0.25758,-2.52718c0.38544,-0.83419 1.52317,-0.46027 2.36923,-0.43159c0.20221,0.00686 0.54812,0.06362 0.85985,0.104c0.15239,-0.08828 0.307,-0.17689 0.45847,-0.2663c-0.71706,-0.70452 -1.39634,-1.4955 -1.30777,-2.61973c0.0724,-0.919 1.21063,-0.66605 0.90632,-1.2966c-0.15997,-0.71059 -0.39208,-2.10535 0.0249,-2.60185c0.33308,-0.39661 1.8081,-0.16538 1.90811,0.38003c0.15226,0.83038 -0.8935,1.30016 -1.12512,1.85561c-0.19067,0.45727 0.73239,1.55847 0.96928,1.89134c1.15731,1.05163 0.28864,1.84537 -0.73141,2.52493c0.0028,0.0297 0.00367,0.05931 0.00243,0.08881c-0.01446,0.34497 -0.39091,0.46763 -0.9034,0.491c-0.12872,0.08512 -0.2499,0.1689 -0.35878,0.25172c-0.0772,0.05872 -0.91159,0.56724 -0.86728,0.71912c0.36998,1.26838 1.72582,1.27548 0.24016,2.89093c-0.20074,0.24151 -0.85258,0.33183 -0.71461,0.61395c0.34022,0.69565 1.50734,1.33731 0.40187,2.18661c-1.09373,0.84028 -3.82222,0.53656 -5.08748,0.59629c-0.77146,0.00679 -0.27323,1.43715 -1.17766,1.4201c-0.42075,-0.00793 -0.77592,-0.67606 -1.3339,-0.29945c-0.51063,0.34464 -0.65416,1.28037 -1.3396,1.45172c-0.68373,0.17091 -0.85315,-0.88281 -1.39069,-1.0058c-0.66581,-0.15233 -0.91756,0.26889 -1.41975,-0.03691zM249.03793,113.54994c0.0777,0.17116 -0.07698,0.61995 -0.20375,0.88368c0.3102,0.03773 0.61044,-0.22255 1.10489,-0.09784c0.19217,0.04847 1.07906,1.03356 1.15571,0.99521c1.25857,-0.62966 1.08833,-2.0703 2.79443,-1.16085c0.53107,0.28309 0.52117,-1.32639 1.11576,-1.4194c1.38767,-0.04436 2.20186,-0.36056 3.5146,-0.53363c0.27715,-0.03654 1.05312,0.25497 1.31676,0.03064c0.8016,-0.68208 -0.52506,-1.05101 -0.60612,-1.72625c-0.06306,-0.52526 0.5738,-0.65586 0.83211,-0.99455c1.41793,-1.54445 -0.88,-2.0522 -0.13397,-3.03714c0.13604,-0.1796 0.35277,-0.35397 0.61035,-0.52668c-0.99299,-0.07876 -2.03405,-0.25436 -2.06266,0.05064c-0.1486,0.59988 -0.03854,2.15651 -0.28515,2.59905c-0.44446,0.79758 -1.86541,0.16864 -2.50553,0.51086c-0.67531,0.36103 1.01493,1.80028 0.40368,2.26153c-0.37826,0.28544 -1.40954,-0.61627 -1.7017,-0.81546c-0.57149,-0.58533 0.14507,1.74768 -0.26349,2.15826c-0.50405,0.50654 -1.17744,-0.55956 -1.65429,-0.6318c-0.49253,-0.07462 0.23304,1.53655 -1.00032,1.2245c-0.20435,-0.0517 -0.37837,-0.62102 -0.47656,-1.17116c-0.17754,0.5633 -0.51527,1.09336 -0.9623,1.4584c-0.18048,0.14738 -0.72408,0.02947 -0.99242,-0.05802zM262.17085,104.97513c0.77341,-0.51514 1.2604,-1.07258 0.51521,-1.75719c-0.27626,-0.38376 -0.78442,-1.00917 -0.99809,-1.61535c-0.22544,0.36191 -0.80504,0.6616 -0.81302,1.0949c-0.01642,0.89121 0.91368,1.61848 1.29589,2.27763zM261.64959,100.7522c0.1994,-0.49908 1.01632,-0.86352 1.07447,-1.523c0.00469,-0.05317 -1.0143,-0.17557 -1.02599,-0.15761c-0.28111,0.43209 -0.1882,1.07106 -0.04848,1.68061z" fill="#ffffef" stroke="none" stroke-width="0.5" stroke-linecap="butt"/></g><g fill="#6e1fab" stroke="none" stroke-width="0.5" stroke-linecap="butt"><path d="M211.7154,158.36261c0.02738,0.2485 -0.22111,0.27588 -0.22111,0.27588l-0.02969,0.00328c-1.36117,0.14999 -2.67348,0.37202 -4.0345,0.18752c0,0 -0.24774,-0.03358 -0.21415,-0.28132c0.03358,-0.24774 0.28132,-0.21415 0.28132,-0.21415c1.31768,0.17864 2.59351,-0.04369 3.91257,-0.18904l0.02969,-0.00328c0,0 0.2485,-0.02738 0.27588,0.22111z"/><path d="M214.38331,162.04831c0.06988,0.24004 -0.17016,0.30991 -0.17016,0.30991l-0.03229,0.0094c-0.68973,0.19972 -1.24721,0.3875 -1.97045,0.46754c0,0 -0.24848,0.0275 -0.27598,-0.22098c-0.0275,-0.24848 0.22098,-0.27598 0.22098,-0.27598c0.69774,-0.07723 1.21874,-0.25553 1.8857,-0.45066l0.03229,-0.0094c0,0 0.24004,-0.06988 0.30991,0.17016z"/><path d="M217.5113,165.26679c0.24862,-0.0263 0.27491,0.22232 0.27491,0.22232l-0.00363,0.3981c-0.53254,0.93744 -0.1905,2.29634 -1.43336,2.52653c0,0 -0.24848,0.0275 -0.27598,-0.22098c-0.0275,-0.24848 0.22098,-0.27598 0.22098,-0.27598c0.71626,0.01601 0.72434,-1.67345 1.05135,-2.2725l-0.05659,-0.10257c0,0 -0.0263,-0.24862 0.22232,-0.27491z"/><path d="M221.96259,168.55533c0.24728,0.03674 0.21054,0.28403 0.21054,0.28403l-0.03447,0.23203c-0.12258,0.76053 -0.51723,1.3035 -1.102,1.79961c0,0 -0.19149,0.16072 -0.35221,-0.03078c-0.16072,-0.19149 0.03078,-0.35221 0.03078,-0.35221c0.48366,-0.40084 0.84569,-0.86366 0.92885,-1.49011l0.03447,-0.23203c0,0 0.03674,-0.24728 0.28403,-0.21054z"/><path d="M226.95351,170.03337c0.23457,0.08648 0.14809,0.32105 0.14809,0.32105l-0.06877,0.18653c-0.68826,1.86691 -1.49169,3.65535 -1.27263,5.63461c0,0 0.0275,0.24848 -0.22098,0.27598c-0.24848,0.0275 -0.27598,-0.22098 -0.27598,-0.22098c-0.22872,-2.06647 0.58392,-3.91894 1.30046,-5.86256l0.06877,-0.18653c0,0 0.08648,-0.23457 0.32105,-0.14809z"/><path d="M231.33877,172.03675c0.24848,-0.0275 0.27598,0.22098 0.27598,0.22098c0.12834,1.15959 0.31169,2.81613 0.44003,3.97572c0,0 0.0275,0.24848 -0.22098,0.27598c-0.24848,0.0275 -0.27598,-0.22098 -0.27598,-0.22098c-0.12834,-1.15959 -0.25669,-2.31917 -0.38503,-3.47876l-0.055,-0.49697c0,0 -0.0275,-0.24848 0.22098,-0.27598z"/><path d="M237.0745,173.6666c0.24993,-0.00591 0.25584,0.24402 0.25584,0.24402l0.01107,0.51087c-0.1555,2.12503 -1.7793,3.95757 -1.53381,6.1756c0,0 0.0275,0.24848 -0.22098,0.27598c-0.24848,0.0275 -0.27598,-0.22098 -0.27598,-0.22098c-0.25234,-2.27989 1.40525,-4.10208 1.53188,-6.26378l-0.01203,-0.46587c0,0 -0.00591,-0.24993 0.24402,-0.25584z"/><path d="M242.23056,176.14792c0.20036,-0.14952 0.34988,0.05084 0.34988,0.05084l0.08025,0.10753c1.11711,1.51295 1.11918,3.59894 1.31836,5.3986c0,0 0.0275,0.24848 -0.22098,0.27598c-0.24848,0.0275 -0.27598,-0.22098 -0.27598,-0.22098c-0.18643,-1.68444 -0.15762,-3.74552 -1.22212,-5.15456l-0.08025,-0.10753c0,0 -0.14952,-0.20036 0.05084,-0.34988z"/><path d="M245.4419,179.0017c-0.00165,-0.25 0.24834,-0.25165 0.24834,-0.25165l0.48204,0.12452c0.43132,0.75725 1.14634,1.33562 1.25802,2.19681c0,0 0.0275,0.24848 -0.22098,0.27598c-0.24848,0.0275 -0.27598,-0.22098 -0.27598,-0.22098c-0.06186,-0.72482 -0.82384,-1.3518 -1.19553,-2.00435l-0.04427,0.12801c0,0 -0.25,0.00165 -0.25165,-0.24834z"/><path d="M250.64753,180.34996c0.08791,-0.23403 0.32194,-0.14612 0.32194,-0.14612l0.00514,0.00193c1.1912,0.4587 1.37925,1.77595 2.35359,2.55024c0,0 0.19515,0.15626 0.03889,0.3514c-0.15626,0.19515 -0.3514,0.03889 -0.3514,0.03889c-0.88141,-0.71047 -1.17243,-2.092 -2.2169,-2.47248l-0.00514,-0.00193c0,0 -0.23403,-0.08791 -0.14612,-0.32194z"/><path d="M254.13767,179.6481c0.15626,-0.19515 0.3514,-0.03889 0.3514,-0.03889c0.78061,0.62503 1.70326,1.3638 2.48386,1.98883c0,0 0.19515,0.15626 0.03889,0.3514c-0.15626,0.19515 -0.3514,0.03889 -0.3514,0.03889c-0.78061,-0.62503 -1.5612,-1.25005 -2.34181,-1.87508l-0.14205,-0.11374c0,0 -0.19515,-0.15626 -0.03889,-0.3514z"/><path d="M257.39586,177.2759c0.15557,-0.1957 0.35127,-0.04014 0.35127,-0.04014l0.27031,0.21608c0.70585,0.46694 1.50106,0.75283 2.15924,1.27632c0,0 0.19515,0.15626 0.03889,0.3514c-0.15626,0.19515 -0.3514,0.03889 -0.3514,0.03889c-0.63799,-0.51469 -1.43203,-0.79279 -2.12259,-1.24961l-0.30557,-0.24169c0,0 -0.1957,-0.15557 -0.04014,-0.35127z"/><path d="M211.76009,154.22132c0.0275,0.24848 -0.22098,0.27598 -0.22098,0.27598l-0.30152,0.03337c-1.17625,0.13019 -2.2871,0.49115 -3.39822,0.62764c0,0 -0.24848,0.0275 -0.27598,-0.22098c-0.0275,-0.24848 0.22098,-0.27598 0.22098,-0.27598c1.08407,-0.10343 2.24289,-0.49976 3.39822,-0.62764l0.30152,-0.03337c0,0 0.24848,-0.0275 0.27598,0.22098z"/></g></g><g stroke-width="0" stroke-linecap="butt"><path d="M225.63918,196.01484c-0.56928,-5.14347 2.90069,-9.7482 7.75037,-10.28497c4.8497,-0.53676 9.24263,3.1977 9.81191,8.34118c0.56928,5.14347 -2.90068,9.7482 -7.75037,10.28497c-4.8497,0.53676 -9.24263,-3.19772 -9.81191,-8.34118z" fill="#ffffff" stroke="#000000"/><path d="M218.14285,196.22528c-0.83034,-7.50218 6.4283,-17.42681 14.26392,-18.29406c7.8356,-0.86724 15.77079,7.37574 16.60113,14.87792c0.83034,7.50218 -5.15882,16.84156 -12.99443,17.7088c-7.8356,0.86724 -17.04027,-6.79048 -17.87061,-14.29266z" fill="url(#color-39)" stroke="none"/></g><g><g stroke="#000000" stroke-width="2"><path d="M247.73645,197.35027c0,0 1.2191,8.15654 6.63338,13.74817c3.92518,4.05376 7.94365,5.54443 10.21501,10.12461c5.4044,10.89795 1.43199,12.9895 1.43199,12.9895" fill="none" stroke-linecap="round"/><path d="M254.75089,243.13167c-0.04403,-5.79882 4.62116,-10.53539 10.41998,-10.57941c5.79882,-0.04403 10.53539,4.62116 10.57941,10.41998c0.04403,5.79882 -4.62116,10.53539 -10.41998,10.57941c-5.79882,0.04403 -10.53539,-4.62116 -10.57941,-10.41998zM265.38417,248.62067c3.02547,-0.02297 5.45948,-2.49422 5.43651,-5.51969c-0.02297,-3.02547 -2.49422,-5.45948 -5.51969,-5.43651c-3.02547,0.02297 -5.45948,2.49422 -5.43651,5.51969c0.02297,3.02547 2.49422,5.45948 5.51969,5.43651z" fill="#f9ff00" stroke-linecap="butt"/></g><g fill="#feffac" stroke="none" stroke-width="0.5" stroke-linecap="butt"><path d="M269.26191,235.36104l-0.10192,0.15668c1.42301,0.76753 3.24514,2.6109 4.39033,3.8945c0,0 0.33287,0.3731 -0.04023,0.70596c-0.3731,0.33287 -0.70596,-0.04023 -0.70596,-0.04023c-0.97611,-1.09408 -2.88661,-3.1453 -4.08971,-3.66499l-0.40061,-0.73395c0,0 -0.15898,-0.47405 0.31507,-0.63303c0.47405,-0.15898 0.63303,0.31507 0.63303,0.31507z" data-paper-data="{&quot;index&quot;:null}"/><path d="M272.72,242.33409c0,-0.27614 0.22386,-0.5 0.5,-0.5c0.27614,0 0.5,0.22386 0.5,0.5c0,0.27614 -0.22386,0.5 -0.5,0.5c-0.27614,0 -0.5,-0.22386 -0.5,-0.5z"/></g></g></g></g></svg>